<svg xmlns="http://www.w3.org/2000/svg" viewBox="0 0 1098 1093">
<path d="M331.5 112.72C331.73 113.38 332.41 113.84 332.58 114.51C332.85 115.63 332.27 116.76 332.69 117.95C333.31 119.72 334.89 121.1 335.47 123.03C337.41 129.46 337.07 136.57 337.49 143.2C337.89 149.63 338.97 156.05 339 162.5C339.02 167.52 338.09 172.48 338.33 177.5C338.66 184.41 340.35 191.36 341.44 198.18C343.65 212.01 346.07 225.79 348.81 239.52C350.71 249 352.61 258.5 354.56 267.96C355.34 271.77 357.42 276.62 357.24 280.5C357.13 282.88 354.89 289.98 353.84 292.36C348.05 305.48 331.04 315.35 320.39 324.91C313.51 331.1 307.27 337.87 300.65 344.18C294.77 349.79 288.17 355.12 282.77 361.25C276.78 368.05 271.67 375.67 265.71 382.5C264.74 381.33 265.54 378.66 265.5 376.46C262.74 376.74 257.43 379.86 255.16 381.72C254.28 382.44 253.89 383.66 252.87 384.32C246.45 388.48 240.27 393.75 234.63 399C231.15 402.25 227.47 403.31 226.53 408.8C225.24 416.27 225.75 424.93 226.23 432.5C226.44 435.87 226.73 439.47 230.63 439.5C228.58 444.02 226.54 448.55 224.5 453.07C220.66 440.92 224.93 424.27 221.82 411.52C220.85 407.57 215.06 405.05 212.89 401.5C208.06 393.59 206.29 383.56 205.18 374.49C201.17 341.55 202.86 302.51 211.97 270.53C216.08 256.09 222.87 243.16 229.1 229.63C231.97 223.39 233.97 217 237.6 211.1C250.52 190.12 268.16 171.38 285.39 153.9C291.84 147.36 298.45 140.93 304.79 134.27C309.57 129.25 314.33 123.58 319.87 119.38C323.44 116.68 327.8 115.3 331.5 112.72ZM321.83 122.69C319.06 125.13 316.28 127.56 313.5 130C313.52 130.53 313.54 131.06 313.57 131.6C310.94 133.55 305.05 135.93 303.53 139.03C302.98 140.16 303.14 141.21 302.49 142.34C301.47 144.12 298.94 145.74 297.71 147.57C293.93 148.97 288.51 154.47 286.84 158.36C283.89 161.23 280.94 164.09 277.99 166.96C277.5 167.31 277 167.65 276.5 168C275.5 169 274.5 170 273.5 171C273.24 171.62 272.99 172.24 272.73 172.86C271.48 174.21 270.22 175.56 268.97 176.92C267.48 178.28 265.99 179.64 264.5 181C264.58 181.3 264.67 181.59 264.75 181.89C264.15 182.56 263.56 183.23 262.96 183.89C262.14 184.6 261.32 185.3 260.5 186C260.25 186.63 259.99 187.27 259.74 187.9C254.23 194.46 243.76 205.98 243.1 214.5C249.84 215.81 257.13 207.65 262.03 203.53C275.53 192.2 289.16 179.41 305.14 171.61C309.4 169.53 313.75 167.67 318.52 167.23C323.39 166.78 327.97 168.06 332.5 165.85C333.38 162.79 332.78 159.78 335 157.5C334.34 156.69 333.77 156.52 333.36 155.47C333.04 154.68 331.85 141.23 332.04 140.53C332.24 139.79 333.16 138.54 333.5 138C332.58 136.68 332.33 137.26 331.89 135.69C331.66 134.9 332.67 134.17 332.55 133.5C332.42 132.76 331.6 132.24 331.38 131.47C330.56 128.66 331.49 126.68 333 124.5C330.83 123.25 330.98 121.71 329.79 119.5C326.53 119.06 324.46 120.75 321.83 122.69ZM758.17 553.06C755.11 559.06 754.21 566.6 749 571.22C746.67 569.26 746.86 571.11 745.5 570.01C747.74 566.42 743.21 567 741.39 563.5C741.76 563.33 743.28 562.89 743.4 562.5C743.4 562.49 742.43 561.58 742.37 561.39C741.63 559.1 741.72 556.53 740.53 554.5C738.59 553.59 735.66 551.58 733.5 551.58C728.95 551.59 723.78 557.64 721.58 561.05C720.68 562.43 720.24 564.25 719.1 565.48C718.82 565.79 717.76 566.27 717.59 566.57C717.23 567.19 716.33 570.6 715.48 571.98C712.52 576.75 707.43 583.66 709.01 589.5C707.54 590.79 704.69 593.24 703.55 594.68C703.16 595.17 703.54 595.8 702.88 596.32C702.51 596.61 701.74 596.4 701.54 596.58C700.81 597.24 700.55 598.64 699.92 599.46C697.94 602.03 695.31 604.2 693.38 606.81C691.66 609.14 690.65 612.28 688.31 614.19C685.26 616.67 681 616.56 677.8 618.4C659.87 628.78 650.7 633.65 629.5 634.17C624.47 634.29 619.38 633.3 614.5 633.55C608.89 633.85 603.06 634.93 597.5 635.13C596.19 635.17 594.98 634.42 593.74 634.55C593 634.63 592.26 635.24 591.5 635.39C588.56 635.95 585.52 635.22 582.74 635.55C579.7 635.91 576.66 636.6 573.5 636.69C570.75 636.76 558.16 638.03 556.59 640.56C556.26 641.1 556.53 641.83 556.5 642.47C559.56 642.59 562.16 645.29 564.81 646.59C567.62 647.98 570.6 647.78 573.36 649.09C577.47 651.06 581.82 651.83 586.18 653.4C587.42 653.85 588.36 655.01 589.5 655.42C590.58 655.8 592.2 655.61 593.43 656.02C595.32 656.65 596.93 657.78 598.61 658.44C601.36 659.52 604.63 659.7 607.47 660.91C611.69 662.69 616.02 664.28 619.85 666.55C621.95 667.79 624.6 667.79 626.68 668.79C627.55 669.21 628.07 670.1 628.87 670.45C631.21 671.5 634.03 671.91 636.42 672.97C637.59 673.48 638.15 674.61 639.2 675.32C641.4 676.8 644.33 677.41 646.49 679.01C647.78 679.96 648.64 681.52 649.87 682.52C651.72 684.03 654.1 684.91 655.98 686.49C660.01 689.9 663.21 695.78 664.85 700.58C667.19 707.39 665.59 716.64 664.55 723.5C664.15 726.08 664.63 728.87 664.32 731.5C663.16 741.29 662.77 751.48 663.38 761.5C663.81 768.56 663.13 776.19 668.5 781.52C669.83 780.52 671.17 779.53 672.5 778.53C672.03 777.13 675.86 771.48 676.59 769.2C679.41 760.41 682.33 751.66 683.54 742.5C685.14 730.42 685.87 718.53 686.58 706.5C686.8 702.74 687.86 698.23 687.41 694.5C687.03 691.28 686.36 687.9 686.38 684.5C686.42 677.42 685.92 669.54 686.74 662.5C686.85 661.57 687.14 656.88 687.22 656.58C687.35 656.11 688.38 655.69 688.42 655.44C688.47 655.1 687.61 653.02 687.5 652.55C692.25 652.43 688.76 655.79 692.5 657.04C693.26 661.96 691.59 665.01 694.5 669C695.24 665.32 694.38 662.07 694.38 658.5C694.38 656.87 695.49 655.48 694.81 653.69C694.34 652.43 693.09 652.07 692 651.5C694.94 647.7 694.82 635.39 693 630.5C693.61 628.46 693.09 628.77 695 628C695.33 628.5 695.67 629 696 629.5C694.28 633.11 694.11 647.67 695.9 651.17C696.21 651.78 696.52 652.39 696.83 653C696.83 653.67 696.83 654.33 696.83 655C696.49 655.17 696.15 655.33 695.81 655.5C695.86 662 695.91 668.5 695.96 675C695.64 674.83 695.32 674.67 695 674.5C694.83 673 694.67 671.5 694.5 670C693.17 672.98 693.53 673.15 693.7 676.5C694.45 676.67 695.21 676.83 695.96 677C697.77 688.13 696.67 700.22 696.55 711.5C696.49 718.31 697.09 726.57 695.17 733.01C694.94 728.34 694.72 723.67 694.5 719C693.65 724.5 692.8 730 691.95 735.5C692.95 735 693.95 734.5 694.96 734C695.55 741.96 693.13 750.81 691.18 758.55C685.42 781.43 674.56 805.24 655.8 820.2C653.2 822.97 650.6 825.73 648 828.5C648.06 829 648.11 829.5 648.17 830C646.26 831.75 645.58 832.15 645 834.5C642.58 834.64 641.65 837.14 640.35 839.06C637.44 843.37 631.53 850.38 634 855.5C630.55 857.45 632.72 859.37 628.91 862.5C629 863.15 629.7 863.66 629.68 864.31C629.68 864.34 628.82 865.67 628.81 865.69C627.98 869.07 628.66 872.85 626.83 876C626.56 876.17 626.28 876.33 626 876.5C625.98 878 625.96 879.5 625.93 881C624.29 886.56 624.62 894.37 625.97 900C625.65 901.83 625.32 903.67 625 905.5C625.44 905.67 625.89 905.83 626.33 906C626.55 907 626.76 908 626.98 909C627.12 910.67 627.25 912.33 627.39 914C627.95 918.95 628.5 923.91 629.05 928.86C625.7 928.89 622.35 928.92 619 928.95C613.64 927.23 607.19 927.63 601.5 927.28C599.13 927.13 596.85 926.51 594.49 926.35C587.84 925.91 581.15 926.47 574.5 926.07C558.86 925.14 543.11 924.56 527.5 923.22C524.27 922.94 520.68 922.76 517.5 922.27C516.05 922.05 514.95 921.34 513.49 921.27C509.49 921.09 505.4 922.39 501.49 922.85C492.59 923.9 483.45 925.11 474.5 925.75C458.96 926.86 443.01 925.9 427.5 925.09C374.79 922.35 322.06 910.29 277.15 881.42C245.81 861.26 220.51 833.27 200.36 802.16C195.62 794.83 191.1 787.36 186.89 779.71C185.12 776.49 182.08 772.82 180.99 769.37C178.09 760.22 178.29 745.39 177.12 735.5C173.11 701.6 174.66 665.31 182.58 632.16C185.81 618.65 189.75 604.99 195.89 592.49C202.62 578.78 211.43 566.05 215.56 551.16C219.25 537.86 220.24 524.1 221.64 510.46C222.3 504.03 221.63 496.7 223.54 490.46C224.72 486.59 226.92 482.89 228.64 479.24C232.72 470.61 236.61 461.88 240.63 453.23C250.04 432.98 259.29 411.86 271.8 393.29C286.68 371.2 305.68 352.65 324.84 334.34C335.41 324.23 345.61 313.71 356.68 304.15C360.73 300.66 364.45 296.35 369.06 293.68C369.71 294.62 370.35 295.56 371 296.5C368.63 294.91 368.74 296.23 368 298.5C367.58 298.3 367.22 297.71 366.77 297.82C366.06 298 362.68 301.85 362.65 302.62C362.63 303.16 363.23 303.53 363.5 304C361.99 305.44 361.45 304.87 359.98 305.59C357.98 306.57 356.31 309.65 354.79 311.29C350.5 315.94 345.76 320.32 341.26 324.77C325.49 340.38 309.34 355.66 295.23 372.76C286.7 383.1 276.27 394.59 275.13 408.5C279.97 415.03 286.19 411.16 292.74 410.39C297.19 409.87 302.03 409.84 306.5 410.04C310.57 410.22 314.58 410.65 318.52 410.98C320.49 411.14 322.43 410.42 324.32 410.48C328.24 410.6 332.46 411.4 336.5 411.1C348.06 410.23 359.9 408.81 371.5 407.22C378.5 406.26 385.61 404.43 392.41 403.92C393.81 403.82 395.16 402.73 396.53 402.51C400.24 401.94 403.98 401.13 407.74 400.46C416.42 398.91 424.89 396.94 433.48 395.11C434.88 394.81 436.19 393.79 437.53 393.54C441.98 392.69 447.23 392.06 451.58 390.49C452.14 390.29 452.27 389.69 452.83 389.52C456.79 388.3 461.25 387.81 465.25 386.59C493.89 377.84 522.54 367.95 550.16 356.69C555.77 354.4 561.63 352.89 567.27 350.62C577.55 346.5 587.66 341.99 597.74 337.38C606.75 333.27 616.15 330.14 624.79 325.4C627.92 323.68 631.77 322.72 634.92 321.33C641.23 318.56 647.02 314.53 653.17 311.68C664.86 306.27 676.55 299.97 687.43 292.94C696.31 287.2 705.79 282.75 714.37 276.84C715.68 275.94 716.57 274.34 717.84 273.49C719.44 272.43 721.48 271.74 723.13 270.6C735.94 261.74 748.49 250.47 759 239.41C762.2 236.04 765.05 232.07 768.17 228.64C769.04 227.69 770.24 227.37 771.04 226.4C773.08 223.92 774.03 220.24 776.38 217.81C777.03 217.13 777.95 217.13 778.55 216.39C779.85 214.8 778.73 213.71 781.91 211.5C781.4 208.24 784.54 205.28 785.97 202.36C786.75 200.76 786.97 198.75 787.63 197.08C788.31 195.37 789.75 194.25 790.21 192.48C790.84 190.02 790.63 187.19 791.4 184.74C791.7 183.83 792.76 183.32 792.93 182.38C793.11 181.41 792.51 179.54 792.41 178.5C795.1 182.76 794.41 168.84 794.21 167.5C793.76 164.4 791.74 164.41 790.49 162.18C790.07 161.44 790.42 160.42 789.96 159.64C788.45 157.1 784.02 155.04 781.4 153.89C777.21 152.05 773.14 151.67 768.78 150.51C766.62 149.93 764.65 148.64 762.34 148.16C746.16 144.81 728.88 146.47 712.5 146.87C675.27 147.77 638.05 151 602.23 161.6C590.21 165.16 578.71 169.57 567.05 174C562.43 175.75 549.42 182.7 545.45 182.97C544.93 183.01 543.93 182.35 543.61 182.43C543.17 182.56 543.62 183.54 542.79 183.71C541.86 183.9 540.78 183.04 539.69 183.19C537.9 183.44 536.01 185.17 534.31 185.81C530.9 187.11 526.7 188.01 523.66 190.16C522.79 190.76 522.22 191.73 521.31 192.24C520.37 192.78 518.41 192.73 517.5 193C516.23 196.42 512.37 197.11 509.1 198.61C503.2 201.32 491 205.6 486.8 209.86C483.56 211.42 473.43 217.41 470.54 217.65C469.16 217.76 468.06 216.95 466.69 217.19C466.31 217.25 452.85 224.41 451.66 225.16C445.89 228.77 439.73 231.8 434.03 235.53C430.86 237.61 427.57 241.04 424 242C424.17 240.79 424.33 239.59 424.5 238.38C425.85 237.37 429.58 233.74 431.35 234.09C432.57 234.33 431.4 234.5 432.5 235C432.69 234.14 432.46 233.54 433 232.74C434.53 230.48 447.58 223.94 450.71 222.21C469.52 211.83 489.03 202.82 508.72 194.24C543.57 179.04 578.91 162.56 615.96 153.5C669.75 140.33 726.54 140.77 781.5 143.29C798.68 144.08 815.86 145.04 832.98 146.47C843.81 147.37 854.61 147.47 865.36 149.25C872.8 150.48 888.51 150.42 890.02 160.53C891.74 171.95 875.41 186.39 867.7 193.18C859.44 200.46 850.38 206.51 841.73 213.28C839.32 215.17 837.49 217.72 835.02 219.56C815.65 233.98 794.05 245.82 772.88 257.4C731.23 280.2 689.47 302.79 646.43 322.93C595.31 346.84 542.49 366.86 490.05 387.56C480.91 391.17 472.37 396.19 463.24 399.71C454.04 403.26 444.2 405.44 434.65 408.24C414.59 414.12 394.74 420.65 374.58 426.2C366.94 428.3 355.95 428.49 349.17 431.5C351.74 435.63 356.97 435.67 361.5 435.97C372.98 436.72 384.55 435.84 395.81 433.46C409.76 430.51 423.11 424.89 435.66 418.18C444.48 413.46 452.99 407.17 462.49 403.87C470.93 400.93 479.76 401.23 488.57 401.49C499.63 401.83 510.48 401.14 521.46 403C537.38 405.69 559.72 411.16 574.32 418.06C578.3 419.94 581.33 422.3 584.86 424.78C593.09 430.56 602.29 434.88 610.45 440.88C620.45 448.25 629.18 456.86 638.72 464.79C655.67 478.88 673.15 492.21 690.43 505.9C700.48 513.85 709.91 522.66 720.29 530.16C727.24 535.18 736.26 536.55 743.65 540.87C746.52 542.54 749.35 544.45 751.69 546.81C754.05 549.19 755.21 551.46 758.17 553.06ZM424 242C420.93 246.6 418.15 250.72 416.5 256C414.44 257.53 414.26 258.56 413 260.5C411.69 262.51 409.21 264.29 407.5 266C406.75 266.75 405.02 269.23 403.97 269.4C403.46 269.48 403.02 268.93 402.5 268.9C401.45 270.69 400.92 272.18 399.17 273C397.38 272.07 396.84 272.89 395 273.5C396.37 270.88 396.87 271.99 399.28 270.78C402.78 269.03 403.25 264.68 407 263.5C406.5 261.77 407.47 260.93 407.69 258.97C409.81 255.72 413.39 250.87 416.5 249C416.12 245.74 419.28 243.12 421.5 240.87C422.33 241.25 423.17 241.62 424 242ZM397 275.95C396.33 276.24 395.67 276.54 395 276.83C394.33 276.39 393.67 275.94 393 275.5C394.17 275.33 395.33 275.17 396.5 275C396.67 275.32 396.83 275.63 397 275.95ZM377.53 286.01C377.45 286.51 377.36 287 377.27 287.5C377.45 289.77 377.95 287.28 377.77 289.31C377.55 291.72 373.65 293.47 372 293.5C371.91 292.7 371.81 291.91 371.72 291.11C373.66 289.41 375.6 287.71 377.53 286.01ZM533.05 454.23C530.47 455.26 527.55 454.89 524.74 455.37C519.37 456.27 513.92 457.73 508.73 459.32C482.8 467.26 458.8 480.46 437.55 497.08C432 501.43 426.64 506.15 421.6 511.11C419.87 512.82 416.77 514.98 415.73 517.19C414.65 519.49 415.26 523.01 415.29 525.5C415.4 534.35 417.51 544.09 420.14 552.52C429.22 581.62 445.73 607.24 472.79 622.58C480.59 627 489.46 628.63 498 630.74C498.33 630.77 498.67 630.8 499 630.82C504.12 630.46 509.32 631.1 514.5 630.97C522.19 630.77 529.87 629.99 537.53 629.35C541.9 628.99 549.42 630.22 552.05 626.67C552.48 627.11 552.91 627.56 553.34 628C554.06 628.79 554.78 629.58 555.5 630.38C571.5 629.22 587.52 628.42 603.5 626.87C608.53 626.38 618 626.75 619.82 621C620.16 618.66 620.5 616.31 620.84 613.97C622.7 592.42 625.7 571.24 624.93 549.5C624.69 542.72 624.53 529.8 620 524.68C621 520 614.39 506.03 612 501.41C601.6 481.31 582.05 466.58 561.23 458.41C557.88 457.09 553.99 455.9 550.44 455.32C547.92 454.9 545.45 455.19 543.12 454.18C548.78 453.85 559.54 453.27 562.42 446.94C566.17 438.73 554.17 433.28 548.19 431.4C529.64 425.59 508.2 428.09 489.78 433.44C465.5 440.49 443.86 455.19 424.77 471.31C418.61 476.51 410.66 481.84 405.72 488.24C405.12 489.01 404.91 489.99 404.24 490.66C403.2 491.7 401.34 492.56 400.14 493.69C394.14 499.31 388.62 505.42 382.61 511.02C376.54 516.68 369.57 522.28 365.28 529.5C365.97 529.83 366.85 530.54 367.64 530.62C369.72 530.83 376.64 525.38 378.57 524.02C389.34 516.46 400.04 508.86 410.67 501.13C432.92 484.95 456.14 469.43 482.67 461.25C493.18 458.01 503.64 456.6 514.5 455.17C520.64 454.36 526.82 453.86 533.05 454.23ZM231.72 544.27C228.69 545.26 226.74 549.13 225.2 551.59C220.04 559.87 215.3 568.58 210.75 577.25C205.43 587.39 199.63 597.24 195.53 607.99C185.01 635.59 182.15 666.2 181.83 695.5C181.64 713.03 183.14 730.18 186.33 747.38C187.54 753.93 188.71 761.48 192.27 767.24C203.63 785.6 219.98 797.87 236.74 810.73C238.09 811.77 239.96 812.14 241.39 813.06C245.87 815.95 250.45 818.68 255.03 821.51C266.06 828.35 277.9 833.91 289.72 839.68C292.1 840.84 294.96 841.04 297.35 842.17C308.51 847.48 320.48 850.79 332.35 854.17C334.86 854.89 337.13 856.12 339.72 856.63C342.96 857.25 346.25 857.39 349.48 857.96C351.54 858.33 353.47 859.49 355.54 859.81C369.82 862.03 388.29 862.98 402.52 860.9C404.47 860.62 406.51 861.1 408.46 860.84C410.92 860.51 413.86 860.26 416.28 859.71C417.75 859.37 419 858.29 420.52 857.96C423.99 857.23 427.95 856.97 431.28 855.71C432.2 855.36 432.77 854.52 433.65 854.09C437.91 852.01 443.49 850.41 447.95 848.42C449.27 847.82 449.59 846.94 450.64 846.1C452.16 844.89 454.32 844.52 455.91 843.39C458.61 841.47 461.26 839.37 463.91 837.39C464.95 836.62 465.27 835.49 466.1 834.64C470.74 829.9 473.59 826.37 477.46 820.97C483.55 812.45 487.74 802.59 489.71 792.28C490.01 790.7 489.65 789.09 489.9 787.52C490.84 781.74 492.76 775.58 491.84 769.54C491.29 765.87 490.5 762.14 489.9 758.48C489.27 754.57 489.43 750.63 488.73 746.72C488.23 743.98 487.07 741.84 486.23 739.35C485.1 735.98 484.76 732.15 483.71 728.72C482.42 724.5 479.98 720.21 478.09 716.35C477.09 714.31 476.7 711.76 475.71 709.72C472.95 704.05 469.41 698.65 466.46 693.03C464.56 689.43 462.8 685.47 460.39 682.09C453.17 671.95 445.73 662.19 437.51 653.03C435.66 650.96 434.26 648.13 432.39 646.09C430.33 643.85 427.52 642.27 425.46 640.03C424.83 639.34 424.52 638.31 423.93 637.57C421.11 634.01 417.23 631.48 413.97 628.54C411.29 626.12 408.93 622.84 405.91 620.59C403.87 619.07 401.45 617.67 399.64 615.9C388.59 605.07 374.76 597.37 361.97 588.49C344.41 576.28 324.67 567.16 304.65 559.83C299.83 558.06 295.07 556.12 290.28 554.27C287.49 553.2 284.46 552.97 281.65 551.92C280.51 551.5 279.47 550.64 278.28 550.34C271.8 548.69 265.17 548.16 258.65 546.83C257.18 546.53 255.74 545.63 254.28 545.34C249.77 544.45 235.76 542.94 231.72 544.27ZM743.4 578C743.47 578.33 743.55 578.67 743.62 579C742.91 579 742.21 579 741.5 579C739.8 580.7 739.25 581.46 737 581.5C738.83 580 740.67 578.5 742.5 577C742.8 577.33 743.1 577.67 743.4 578ZM718 595.5C716.18 596.98 715.2 597.5 713 597.5C714.82 596.02 715.8 595.5 718 595.5ZM696 621C695.67 619.83 695.33 618.67 695 617.5C697.22 617.77 696.8 617.93 697 620.5C696.67 620.67 696.33 620.83 696 621ZM696 621C696 623.17 696 625.33 696 627.5C695.67 627.67 695.33 627.83 695 628C694.67 626.17 694.33 624.33 694 622.5C694.67 622 695.33 621.5 696 621ZM541.85 634.49C537.73 634.49 533.62 634.49 529.5 634.49C533.62 634.49 537.73 634.49 541.85 634.49ZM358.19 932.87C370.01 936.03 382.4 936.8 394.49 938.4C417.49 941.44 441.24 942.37 464.5 941.96C481.5 941.67 498.5 940.27 515.5 941.45C516.74 950.41 512.6 959.72 510.95 968.5C509.01 978.8 509.2 989.03 509.23 999.5C509.24 1004.28 507.99 1011.22 510 1015.57C478.64 1015.46 447.27 1015.35 415.91 1015.23C417.98 1014.32 420.05 1013.41 422.12 1012.5C414.36 998.85 398.67 990.48 384.55 984.9C352.6 972.27 305.36 967.68 272.65 979.27C270.13 980.16 267.45 980.61 264.91 981.48C251.13 986.18 231.11 997.51 227.06 1012.5C230.37 1013.52 233.69 1014.55 237 1015.57C221 1015.57 205 1015.57 189 1015.57C190.67 1015.21 192.33 1014.86 194 1014.5C189.12 1011.94 192.32 1009.23 193.81 1005.31C197.32 996.11 205.31 988.05 212.69 982.19C214.21 980.97 216.38 980.6 217.97 979.47C220.1 977.94 221.8 975.96 224.03 974.53C228.46 971.69 233.64 970.1 238.31 967.81C241.57 966.22 245.33 963.31 248.69 962.19C252.69 960.85 257.23 960.79 261.31 959.81C264.73 959 267.94 956.91 271.5 956.38C274.21 955.97 277.51 956.48 280.31 955.81C281.51 955.53 282.49 954.47 283.69 954.19C287.91 953.18 292.19 953.62 296.47 952.97C297.17 952.86 298 952.24 298.66 952.22C300.32 952.16 301.49 953.12 303.31 952.81C305.75 952.4 307.29 950.66 309.5 950C309.91 950.6 310.01 951.42 310.72 951.78C312.42 952.63 318.55 952.53 320.28 951.78C321.29 951.34 322.46 949.68 323.5 949C325.5 949.13 327.53 950.1 329.47 949.97C332.15 949.79 334.64 949 337.5 949C338.33 944.83 339.17 940.67 340 936.5C344.5 936.67 349 936.83 353.5 937C354.25 933.52 354.56 933.09 358.19 932.87Z" fill="#b8692d" fill-rule="evenodd" stroke="#b8692d" stroke-width="0.25" stroke-linejoin="round"/>
<path d="M321.83 122.69C322.24 123.29 322.64 123.9 323.05 124.5C319.86 126.67 317 130.58 313.57 131.6C313.54 131.06 313.52 130.53 313.5 130C316.28 127.56 319.06 125.13 321.83 122.69ZM330.53 127C330.53 129.43 330.53 131.87 330.53 134.3C330.53 131.87 330.53 129.43 330.53 127ZM369.06 293.68C369.95 292.82 370.84 291.97 371.72 291.11C371.81 291.91 371.91 292.7 372 293.5C373.65 293.47 377.55 291.72 377.77 289.31C377.95 287.28 377.45 289.77 377.27 287.5C377.36 287 377.45 286.51 377.53 286.01C387.59 277 397.64 267.99 407.69 258.97C407.47 260.93 406.5 261.77 407 263.5C403.25 264.68 402.78 269.03 399.28 270.78C396.87 271.99 396.37 270.88 395 273.5C396.84 272.89 397.38 272.07 399.17 273C398.91 273.83 398.66 274.67 398.41 275.5C397.94 275.65 397.47 275.8 397 275.95C396.83 275.63 396.67 275.32 396.5 275C395.33 275.17 394.17 275.33 393 275.5C393.67 275.94 394.33 276.39 395 276.83C394.17 278.24 393.33 279.64 392.5 281.04C391.99 281.03 391.53 280.5 391.03 280.6C389.39 280.9 389.54 283.29 388.98 284.32C387.82 286.43 385.27 288.7 383 288.5C382.46 291.43 382.18 291.93 379 292.5C378.81 292.82 379.22 293.24 379.14 293.61C378.8 295.14 378.56 293.65 377.84 294.51C377.2 295.28 377.41 296.33 376.65 297.15C375.75 298.13 374.24 297.88 373.19 298.69C371.69 299.83 366.95 306.14 366.53 307.97C366.34 308.79 366.81 309.38 366.62 310.21C365.82 313.61 363.35 315.81 363.01 319.5C366.61 324.48 372.93 323.69 378.5 324.16C390.5 325.16 402.61 324.11 414.5 322.72C452.04 318.33 494.12 307.24 528.21 290.52C539.42 285.02 550.05 278.33 560.8 272.24C568.93 267.63 584.86 254.26 590.28 246.82C593 243.08 596.29 239.02 598.27 234.82C598.97 233.34 598.44 231.03 600.6 231.5C600.86 227.72 602.72 226.8 604.5 223.69C602.53 221.71 602.27 218.24 602.83 215.5C597.89 213.7 600.84 213.19 598.15 210.42C597.78 210.04 597.07 210.26 596.63 209.98C594.82 208.85 593.66 206.84 592.19 205.4C590.79 204.04 588.47 202.78 586.82 201.72C578.41 196.31 566.91 195.42 557.5 193.58C554.14 192.92 549.75 194.12 546.4 194.66C537.76 196.06 528.66 197.3 520.5 200.55C517.05 201.93 513.79 204.75 510 204.5C511.27 203.26 511.48 203.58 512 201.5C508.8 202.16 505.78 203.91 503.5 206.13C502.85 206.04 502.35 205.3 501.69 205.34C501.13 205.36 500.84 206.1 500.31 206.28C496.92 207.42 495.03 207.62 492.5 210.25C491.83 210.14 491.36 209.34 490.69 209.35C489.26 209.37 489.55 210.34 486.8 209.86C491 205.6 503.2 201.32 509.1 198.61C512.37 197.11 516.23 196.42 517.5 193C518.41 192.73 520.37 192.78 521.31 192.24C522.22 191.73 522.79 190.76 523.66 190.16C526.7 188.01 530.9 187.11 534.31 185.81C536.01 185.17 537.9 183.44 539.69 183.19C540.78 183.04 541.86 183.9 542.79 183.71C543.62 183.54 543.17 182.56 543.61 182.43C543.93 182.35 544.93 183.01 545.45 182.97C549.42 182.7 562.43 175.75 567.05 174C578.71 169.57 590.21 165.16 602.23 161.6C638.05 151 675.27 147.77 712.5 146.87C728.88 146.47 746.16 144.81 762.34 148.16C764.65 148.64 766.62 149.93 768.78 150.51C773.14 151.67 777.21 152.05 781.4 153.89C784.02 155.04 788.45 157.1 789.96 159.64C790.42 160.42 790.07 161.44 790.49 162.18C791.74 164.41 793.76 164.4 794.21 167.5C794.41 168.84 795.1 182.76 792.41 178.5C792.51 179.54 793.11 181.41 792.93 182.38C792.76 183.32 791.7 183.83 791.4 184.74C790.63 187.19 790.84 190.02 790.21 192.48C789.75 194.25 788.31 195.37 787.63 197.08C786.97 198.75 786.75 200.76 785.97 202.36C784.54 205.28 781.4 208.24 781.91 211.5C778.73 213.71 779.85 214.8 778.55 216.39C777.95 217.13 777.03 217.13 776.38 217.81C774.03 220.24 773.08 223.92 771.04 226.4C770.24 227.37 769.04 227.69 768.17 228.64C765.05 232.07 762.2 236.04 759 239.41C748.49 250.47 735.94 261.74 723.13 270.6C721.48 271.74 719.44 272.43 717.84 273.49C716.57 274.34 715.68 275.94 714.37 276.84C705.79 282.75 696.31 287.2 687.43 292.94C676.55 299.97 664.86 306.27 653.17 311.68C647.02 314.53 641.23 318.56 634.92 321.33C631.77 322.72 627.92 323.68 624.79 325.4C616.15 330.14 606.75 333.27 597.74 337.38C587.66 341.99 577.55 346.5 567.27 350.62C561.63 352.89 555.77 354.4 550.16 356.69C522.54 367.95 493.89 377.84 465.25 386.59C461.25 387.81 456.79 388.3 452.83 389.52C452.27 389.69 452.14 390.29 451.58 390.49C447.23 392.06 441.98 392.69 437.53 393.54C436.19 393.79 434.88 394.81 433.48 395.11C424.89 396.94 416.42 398.91 407.74 400.46C403.98 401.13 400.24 401.94 396.53 402.51C395.16 402.73 393.81 403.82 392.41 403.92C385.61 404.43 378.5 406.26 371.5 407.22C359.9 408.81 348.06 410.23 336.5 411.1C332.46 411.4 328.24 410.6 324.32 410.48C322.43 410.42 320.49 411.14 318.52 410.98C314.58 410.65 310.57 410.22 306.5 410.04C302.03 409.84 297.19 409.87 292.74 410.39C286.19 411.16 279.97 415.03 275.13 408.5C276.27 394.59 286.7 383.1 295.23 372.76C309.34 355.66 325.49 340.38 341.26 324.77C345.76 320.32 350.5 315.94 354.79 311.29C356.31 309.65 357.98 306.57 359.98 305.59C361.45 304.87 361.99 305.44 363.5 304C363.23 303.53 362.63 303.16 362.65 302.62C362.68 301.85 366.06 298 366.77 297.82C367.22 297.71 367.58 298.3 368 298.5C368.74 296.23 368.63 294.91 371 296.5C370.35 295.56 369.71 294.62 369.06 293.68ZM297.71 147.57C296.6 151.58 291.61 155.36 288.5 158.43C287.95 158.41 287.39 158.38 286.84 158.36C288.51 154.47 293.93 148.97 297.71 147.57ZM277.99 166.96C278.38 167.48 278.76 167.99 279.15 168.5C277.6 170.2 276.05 171.89 274.5 173.59C273.91 173.35 273.32 173.1 272.73 172.86C272.99 172.24 273.24 171.62 273.5 171C274.5 170 275.5 169 276.5 168C277 167.65 277.5 167.31 277.99 166.96ZM268.97 176.92C269.32 177.44 269.67 177.97 270.02 178.5C268.85 179.83 267.67 181.16 266.5 182.48C265.92 182.29 265.33 182.09 264.75 181.89C264.67 181.59 264.58 181.3 264.5 181C265.99 179.64 267.48 178.28 268.97 176.92ZM262.96 183.89C263.37 184.43 263.78 184.96 264.19 185.5C263.3 186.66 262.4 187.81 261.5 188.97C260.91 188.61 260.33 188.26 259.74 187.9C259.99 187.27 260.25 186.63 260.5 186C261.32 185.3 262.14 184.6 262.96 183.89ZM656.5 196C656.33 195.43 656.11 193.83 655.53 193.58C655.11 193.39 654.89 194.71 654.5 194.56C653.71 194.25 654 192.95 653.2 192.48C652.08 191.84 650.23 192.41 648.99 192.12C643.24 190.8 635.9 191.01 630.13 192.64C626.73 193.6 626.26 196.27 625.28 196.71C624.78 196.94 622.56 196.46 621.85 196.5C620.97 199.33 617.88 199.4 616.07 201.5C617.57 203.07 618.3 203.37 619 205.5C618.97 205.53 618.88 206.56 618.5 206.56C617.94 206.56 618 205 617.78 204.72C617.24 204.02 616.21 203.35 615.5 202.82C613.77 205.38 612.04 207.94 610.31 210.5C611.99 210.32 614.33 212.22 613.75 214.31C613.66 214.63 612.24 216.19 612 216.5C612.68 216.86 614.09 217.23 614.44 218C614.89 218.99 613.73 218.8 613.41 219.53C611.76 223.28 615.57 223.41 611.17 227.5C613.92 229.08 615.29 231.72 618.21 233.25C618.87 233.59 620.17 233.21 620.58 233.59C620.82 233.81 620.23 234.23 620.33 234.54C620.49 234.96 621.05 235.11 621.27 235.5C621.37 235.4 622.45 234.4 622.53 234.41C624.08 234.59 624.87 237.45 626.17 238.26C627.05 238.81 628.36 239.14 629.32 239.5C630.14 237.89 629.11 238.48 630.5 237C632.84 239.53 630.03 236.74 631.13 239.26C632.06 241.4 633.95 238.57 634.69 238.27C635.63 237.88 636.52 238.09 637.5 238C638.5 239.07 639.5 240.15 640.5 241.22C642.08 241.23 651.75 241.44 652.69 240.2C652.88 239.96 652.55 238.32 652.5 238C653.93 238.41 654.95 239.35 655.55 239.51C657.16 239.94 659.62 238.24 660.94 237.5C666.59 234.34 671.91 229.67 673.6 223.24C674.15 221.14 672.96 219.54 673 217.5C673.03 216.12 673.73 215.02 673.89 213.69C674.2 211.2 671.81 203.88 669.38 202.82C668.45 202.42 666.98 202.51 666 202.5C666.48 202.19 667.59 202.02 667.78 201.36C668.1 200.26 665.79 198.91 665.13 198.4C662.6 196.45 658.76 192.82 656.5 196ZM632.5 193C633.33 193.5 634.17 194 635 194.5C633.83 195 632.67 195.5 631.5 196C630.33 195.83 629.17 195.67 628 195.5C629.5 194.67 631 193.83 632.5 193ZM617 205.5C616.17 206.33 615.33 207.17 614.5 208C614.17 205.29 614.29 205.17 617 205.5ZM615.5 209C616 210.17 616.5 211.33 617 212.5C614.17 212.15 614.96 211.86 615.5 209ZM617.5 226C618.92 228.17 619.82 228.41 619.5 231C618.33 230.5 617.17 230 616 229.5C616.32 227.96 616.63 228.56 615 227.5C615.83 227 616.67 226.5 617.5 226ZM370.5 304C371 304.83 371.5 305.67 372 306.5C370.66 307.17 369.32 307.83 367.98 308.5C367.99 308.17 367.99 307.83 368 307.5C368.83 306.33 369.67 305.17 370.5 304ZM231.72 544.27C235.76 542.94 249.77 544.45 254.28 545.34C255.74 545.63 257.18 546.53 258.65 546.83C265.17 548.16 271.8 548.69 278.28 550.34C279.47 550.64 280.51 551.5 281.65 551.92C284.46 552.97 287.49 553.2 290.28 554.27C295.07 556.12 299.83 558.06 304.65 559.83C324.67 567.16 344.41 576.28 361.97 588.49C374.76 597.37 388.59 605.07 399.64 615.9C401.45 617.67 403.87 619.07 405.91 620.59C408.93 622.84 411.29 626.12 413.97 628.54C417.23 631.48 421.11 634.01 423.93 637.57C424.52 638.31 424.83 639.34 425.46 640.03C427.52 642.27 430.33 643.85 432.39 646.09C434.26 648.13 435.66 650.96 437.51 653.03C445.73 662.19 453.17 671.95 460.39 682.09C462.8 685.47 464.56 689.43 466.46 693.03C469.41 698.65 472.95 704.05 475.71 709.72C476.7 711.76 477.09 714.31 478.09 716.35C479.98 720.21 482.42 724.5 483.71 728.72C484.76 732.15 485.1 735.98 486.23 739.35C487.07 741.84 488.23 743.98 488.73 746.72C489.43 750.63 489.27 754.57 489.9 758.48C490.5 762.14 491.29 765.87 491.84 769.54C492.76 775.58 490.84 781.74 489.9 787.52C489.65 789.09 490.01 790.7 489.71 792.28C487.74 802.59 483.55 812.45 477.46 820.97C473.59 826.37 470.74 829.9 466.1 834.64C465.27 835.49 464.95 836.62 463.91 837.39C461.26 839.37 458.61 841.47 455.91 843.39C454.32 844.52 452.16 844.89 450.64 846.1C449.59 846.94 449.27 847.82 447.95 848.42C443.49 850.41 437.91 852.01 433.65 854.09C432.77 854.52 432.2 855.36 431.28 855.71C427.95 856.97 423.99 857.23 420.52 857.96C419 858.29 417.75 859.37 416.28 859.71C413.86 860.26 410.92 860.51 408.46 860.84C406.51 861.1 404.47 860.62 402.52 860.9C388.29 862.98 369.82 862.03 355.54 859.81C353.47 859.49 351.54 858.33 349.48 857.96C346.25 857.39 342.96 857.25 339.72 856.63C337.13 856.12 334.86 854.89 332.35 854.17C320.48 850.79 308.51 847.48 297.35 842.17C294.96 841.04 292.1 840.84 289.72 839.68C277.9 833.91 266.06 828.35 255.03 821.51C250.45 818.68 245.87 815.95 241.39 813.06C239.96 812.14 238.09 811.77 236.74 810.73C219.98 797.87 203.63 785.6 192.27 767.24C188.71 761.48 187.54 753.93 186.33 747.38C183.14 730.18 181.64 713.03 181.83 695.5C182.15 666.2 185.01 635.59 195.53 607.99C199.63 597.24 205.43 587.39 210.75 577.25C215.3 568.58 220.04 559.87 225.2 551.59C226.74 549.13 228.69 545.26 231.72 544.27ZM749 571.22C747.13 573.48 745.27 575.74 743.4 578C743.1 577.67 742.8 577.33 742.5 577C740.67 578.5 738.83 580 737 581.5C739.25 581.46 739.8 580.7 741.5 579C742.21 579 742.91 579 743.62 579C742.9 582.95 736.25 586.81 732.78 589.32C723.16 596.27 710.21 600.71 703.39 610.87C698.36 618.37 697.91 627.76 697.7 636.5C697.63 639.17 698.35 642.95 697.6 645.47C697.26 646.64 696.17 647.25 696.06 648.5C695.74 652.1 697.82 648.18 695.9 651.17C694.11 647.67 694.28 633.11 696 629.5C695.67 629 695.33 628.5 695 628C695.33 627.83 695.67 627.67 696 627.5C696 625.33 696 623.17 696 621C696.33 620.83 696.67 620.67 697 620.5C696.8 617.93 697.22 617.77 695 617.5C695.33 618.67 695.67 619.83 696 621C695.33 621.5 694.67 622 694 622.5C694.33 624.33 694.67 626.17 695 628C693.09 628.77 693.61 628.46 693 630.5C694.82 635.39 694.94 647.7 692 651.5C693.09 652.07 694.34 652.43 694.81 653.69C695.49 655.48 694.38 656.87 694.38 658.5C694.38 662.07 695.24 665.32 694.5 669C691.59 665.01 693.26 661.96 692.5 657.04C688.76 655.79 692.25 652.43 687.5 652.55C687.61 653.02 688.47 655.1 688.42 655.44C688.38 655.69 687.35 656.11 687.22 656.58C687.14 656.88 686.85 661.57 686.74 662.5C685.92 669.54 686.42 677.42 686.38 684.5C686.36 687.9 687.03 691.28 687.41 694.5C687.86 698.23 686.8 702.74 686.58 706.5C685.87 718.53 685.14 730.42 683.54 742.5C682.33 751.66 679.41 760.41 676.59 769.2C675.86 771.48 672.03 777.13 672.5 778.53C671.17 779.53 669.83 780.52 668.5 781.52C663.13 776.19 663.81 768.56 663.38 761.5C662.77 751.48 663.16 741.29 664.32 731.5C664.63 728.87 664.15 726.08 664.55 723.5C665.59 716.64 667.19 707.39 664.85 700.58C663.21 695.78 660.01 689.9 655.98 686.49C654.1 684.91 651.72 684.03 649.87 682.52C648.64 681.52 647.78 679.96 646.49 679.01C644.33 677.41 641.4 676.8 639.2 675.32C638.15 674.61 637.59 673.48 636.42 672.97C634.03 671.91 631.21 671.5 628.87 670.45C628.07 670.1 627.55 669.21 626.68 668.79C624.6 667.79 621.95 667.79 619.85 666.55C616.02 664.28 611.69 662.69 607.47 660.91C604.63 659.7 601.36 659.52 598.61 658.44C596.93 657.78 595.32 656.65 593.43 656.02C592.2 655.61 590.58 655.8 589.5 655.42C588.36 655.01 587.42 653.85 586.18 653.4C581.82 651.83 577.47 651.06 573.36 649.09C570.6 647.78 567.62 647.98 564.81 646.59C562.16 645.29 559.56 642.59 556.5 642.47C556.53 641.83 556.26 641.1 556.59 640.56C558.16 638.03 570.75 636.76 573.5 636.69C576.66 636.6 579.7 635.91 582.74 635.55C585.52 635.22 588.56 635.95 591.5 635.39C592.26 635.24 593 634.63 593.74 634.55C594.98 634.42 596.19 635.17 597.5 635.13C603.06 634.93 608.89 633.85 614.5 633.55C619.38 633.3 624.47 634.29 629.5 634.17C650.7 633.65 659.87 628.78 677.8 618.4C681 616.56 685.26 616.67 688.31 614.19C690.65 612.28 691.66 609.14 693.38 606.81C695.31 604.2 697.94 602.03 699.92 599.46C700.55 598.64 700.81 597.24 701.54 596.58C701.74 596.4 702.51 596.61 702.88 596.32C703.54 595.8 703.16 595.17 703.55 594.68C704.69 593.24 707.54 590.79 709.01 589.5C707.43 583.66 712.52 576.75 715.48 571.98C716.33 570.6 717.23 567.19 717.59 566.57C717.76 566.27 718.82 565.79 719.1 565.48C720.24 564.25 720.68 562.43 721.58 561.05C723.78 557.64 728.95 551.59 733.5 551.58C735.66 551.58 738.59 553.59 740.53 554.5C741.72 556.53 741.63 559.1 742.37 561.39C742.43 561.58 743.4 562.49 743.4 562.5C743.28 562.89 741.76 563.33 741.39 563.5C743.21 567 747.74 566.42 745.5 570.01C746.86 571.11 746.67 569.26 749 571.22ZM718 595.5C715.8 595.5 714.82 596.02 713 597.5C715.2 597.5 716.18 596.98 718 595.5ZM541.85 634.49C537.73 634.49 533.62 634.49 529.5 634.49C533.62 634.49 537.73 634.49 541.85 634.49ZM351.5 676C350.13 671.85 335.99 662.84 331.61 659.97C306.08 643.17 268.81 628.59 241.69 650.2C238.72 652.56 236.74 656.12 235.08 659.45C228.04 673.53 231.58 688 237.91 701.59C240.38 706.89 242.05 712.31 245.35 717.22C249.19 722.94 253.18 728.3 258.58 732.89C259.69 733.83 263.1 737.57 264.57 737.44C264.59 737.44 266.4 736.07 266.5 736C265.76 740.04 270.12 741.63 273.31 743.31C281.85 747.78 289.66 752.75 298.47 756.87C318.15 766.08 351.7 771.4 368.58 754.17C372.04 750.64 374.1 746.08 375.92 741.55C377.71 737.1 378.53 732.35 378.18 727.5C377.12 712.77 371.01 697.94 362.5 686.02C360.69 683.49 354.09 675.58 351.5 676ZM695.96 675C695.96 675.67 695.96 676.33 695.96 677C695.21 676.83 694.45 676.67 693.7 676.5C693.53 673.15 693.17 672.98 694.5 670C694.67 671.5 694.83 673 695 674.5C695.32 674.67 695.64 674.83 695.96 675ZM235.5 674C235.5 676 235.5 678 235.5 680C235.5 678 235.5 676 235.5 674ZM695.17 733.01C695.1 733.34 695.03 733.67 694.96 734C693.95 734.5 692.95 735 691.95 735.5C692.8 730 693.65 724.5 694.5 719C694.72 723.67 694.94 728.34 695.17 733.01ZM415.91 1015.23C407.27 1015.27 398.64 1015.32 390 1015.36C379.84 1013.47 364.29 1014.83 353.5 1014.8C349.17 1014.8 342.7 1013.63 339 1015.66C337 1015.66 335 1015.66 333 1015.66C329.12 1013.49 322.05 1014.75 317.5 1014.76C306.5 1014.78 295.5 1014.8 284.5 1014.84C280.14 1014.85 273.8 1013.77 270 1015.68C259 1015.65 248 1015.61 237 1015.57C233.69 1014.55 230.37 1013.52 227.06 1012.5C231.11 997.51 251.13 986.18 264.91 981.48C267.45 980.61 270.13 980.16 272.65 979.27C305.36 967.68 352.6 972.27 384.55 984.9C398.67 990.48 414.36 998.85 422.12 1012.5C420.05 1013.41 417.98 1014.32 415.91 1015.23Z" fill="#d78e4d" fill-rule="evenodd" stroke="#d78e4d" stroke-width="0.25" stroke-linejoin="round"/>
<path d="M799 551.3C800.1 551.7 801.2 552.1 802.3 552.5C802.3 558.33 803.36 565.56 801.43 570.9C787.09 571.74 769.62 561.21 758.17 553.06C755.21 551.46 754.05 549.19 751.69 546.81C749.35 544.45 746.52 542.54 743.65 540.87C736.26 536.55 727.24 535.18 720.29 530.16C709.91 522.66 700.48 513.85 690.43 505.9C673.15 492.21 655.67 478.88 638.72 464.79C629.18 456.86 620.45 448.25 610.45 440.88C602.29 434.88 593.09 430.56 584.86 424.78C581.33 422.3 578.3 419.94 574.32 418.06C559.72 411.16 537.38 405.69 521.46 403C510.48 401.14 499.63 401.83 488.57 401.49C479.76 401.23 470.93 400.93 462.49 403.87C452.99 407.17 444.48 413.46 435.66 418.18C423.11 424.89 409.76 430.51 395.81 433.46C384.55 435.84 372.98 436.72 361.5 435.97C356.97 435.67 351.74 435.63 349.17 431.5C355.95 428.49 366.94 428.3 374.58 426.2C394.74 420.65 414.59 414.12 434.65 408.24C444.2 405.44 454.04 403.26 463.24 399.71C472.37 396.19 480.91 391.17 490.05 387.56C542.49 366.86 595.31 346.84 646.43 322.93C689.47 302.79 731.23 280.2 772.88 257.4C794.05 245.82 815.65 233.98 835.02 219.56C837.49 217.72 839.32 215.17 841.73 213.28C850.38 206.51 859.44 200.46 867.7 193.18C875.41 186.39 891.74 171.95 890.02 160.53C888.51 150.42 872.8 150.48 865.36 149.25C854.61 147.47 843.81 147.37 832.98 146.47C815.86 145.04 798.68 144.08 781.5 143.29C726.54 140.77 669.75 140.33 615.96 153.5C578.91 162.56 543.57 179.04 508.72 194.24C489.03 202.82 469.52 211.83 450.71 222.21C447.58 223.94 434.53 230.48 433 232.74C432.46 233.54 432.69 234.14 432.5 235C431.4 234.5 432.57 234.33 431.35 234.09C429.58 233.74 425.85 237.37 424.5 238.38C424.33 239.59 424.17 240.79 424 242C423.17 241.62 422.33 241.25 421.5 240.87C419.28 243.12 416.12 245.74 416.5 249C413.39 250.87 409.81 255.72 407.69 258.97C397.64 267.99 387.59 277 377.53 286.01C375.6 287.71 373.66 289.41 371.72 291.11C370.84 291.97 369.95 292.82 369.06 293.68C364.45 296.35 360.73 300.66 356.68 304.15C345.61 313.71 335.41 324.23 324.84 334.34C305.68 352.65 286.68 371.2 271.8 393.29C259.29 411.86 250.04 432.98 240.63 453.23C236.61 461.88 232.72 470.61 228.64 479.24C226.92 482.89 224.72 486.59 223.54 490.46C221.63 496.7 222.3 504.03 221.64 510.46C220.24 524.1 219.25 537.86 215.56 551.16C211.43 566.05 202.62 578.78 195.89 592.49C189.75 604.99 185.81 618.65 182.58 632.16C174.66 665.31 173.11 701.6 177.12 735.5C178.29 745.39 178.09 760.22 180.99 769.37C182.08 772.82 185.12 776.49 186.89 779.71C191.1 787.36 195.62 794.83 200.36 802.16C220.51 833.27 245.81 861.26 277.15 881.42C322.06 910.29 374.79 922.35 427.5 925.09C443.01 925.9 458.96 926.86 474.5 925.75C483.45 925.11 492.59 923.9 501.49 922.85C505.4 922.39 509.49 921.09 513.49 921.27C514.95 921.34 516.05 922.05 517.5 922.27C520.68 922.76 524.27 922.94 527.5 923.22C543.11 924.56 558.86 925.14 574.5 926.07C581.15 926.47 587.84 925.91 594.49 926.35C596.85 926.51 599.13 927.13 601.5 927.28C607.19 927.63 613.64 927.23 619 928.95C618.33 929.8 617.67 930.65 617 931.5C617 932.5 617 933.5 617 934.5C619.06 936.17 621.13 937.83 623.19 939.5C622.96 942.5 622.73 945.5 622.49 948.5C623.66 948.9 624.83 949.29 626 949.69C617.84 949.94 609.66 949.42 601.5 949.27C590.83 949.08 580.17 949.38 569.5 948.87C559.52 948.39 549.47 947.16 539.5 947.09C538.74 950.74 538.33 954.54 537.63 958.25C536.18 966.01 533.61 973.59 533.02 981.5C532.2 992.73 534.27 1004.39 532.5 1015.5C525 1015.52 517.5 1015.55 510 1015.57C507.99 1011.22 509.24 1004.28 509.23 999.5C509.2 989.03 509.01 978.8 510.95 968.5C512.6 959.72 516.74 950.41 515.5 941.45C498.5 940.27 481.5 941.67 464.5 941.96C441.24 942.37 417.49 941.44 394.49 938.4C382.4 936.8 370.01 936.03 358.19 932.87C352.24 930.08 344.28 929.45 337.72 927.7C325.51 924.46 313.43 920.5 301.67 915.82C256.49 897.84 217.56 867.8 190.5 827.28C189.45 831.48 189.76 836.01 188.77 840.3C187.73 844.84 185.7 849.29 184.34 853.75C180.86 865.14 176.94 876.4 173.38 887.78C168.85 902.22 165.46 916.96 160.82 931.35C155.02 949.33 148.71 967.05 143.69 985.27C140.99 995.08 136.88 1005.38 136 1015.54C128.49 1015.52 120.97 1015.51 113.46 1015.5C111.85 1008.15 114.98 999.69 117.02 992.53C117.89 989.47 119.74 986.1 118.12 983.17C120.36 982.04 120.38 980.05 121.11 977.57C122.81 971.71 125.11 965.84 126.19 959.84C130.72 945.72 135.24 931.6 139.77 917.48C142.66 907.74 145.55 898.01 148.43 888.27C152.31 875.85 156.18 863.43 160.05 851.01C162.57 846.47 165.21 838.81 165.84 833.48C166.37 829.02 165.23 824.45 164.95 820.03C163.2 808.75 161.44 797.47 159.69 786.19C158.41 777.68 157.14 769.16 155.87 760.65C156.22 760.27 156.58 759.88 156.93 759.5C156.16 753.37 155.39 747.25 154.62 741.12C154.08 733.09 153.53 725.06 152.99 717.02C153.06 704.34 153.14 691.66 153.21 678.98C153.79 670.62 154.37 662.25 154.96 653.88C157.22 643.95 159.48 634.01 161.74 624.08C163.72 616.33 165.71 608.59 167.69 600.85C170.41 596.78 171.5 590.69 173.58 586.09C177.24 577.98 182.83 570.91 186.62 563C190.53 556.54 194.03 546.66 194.43 539.33C197.69 534.04 196.6 526.49 197.26 520.54C197.73 516.27 199.14 510.97 198.17 506.83C198.77 498.91 199.37 490.98 199.97 483.06C199.89 474.72 199.81 466.39 199.73 458.05C199.45 450.01 199.18 441.97 198.9 433.93C198.86 430.97 198.81 428.01 198.77 425.05C198.93 419.19 195.73 418.08 192.99 413.43C189.96 408.31 188.07 402.73 186.75 396.95C185.51 387.09 183.24 377.44 182.34 367.46C179.22 333.08 182.17 286.43 193.28 253.73C204.31 221.29 224.08 193.37 245.6 167.13C254.97 155.71 265.43 144.8 276.19 134.68C281.44 129.75 287.63 125.25 292.44 119.93C294.97 117.13 297 113.87 299.53 111.05C307.9 101.73 317.3 93.19 327.81 86.36C332.86 83.08 338.55 79.32 344.56 78.16C358.59 75.45 369.3 80.39 381.06 87.45C398.84 98.12 413.4 113.48 419.84 133.63C421.32 138.23 421.11 142.82 421.87 147.5C422.86 153.53 424.2 159.41 424.88 165.5C426.59 180.74 426.04 196.2 426.36 211.5C432.21 211.22 437.19 207.45 442.16 204.62C451.79 199.12 461.71 193.98 471.72 189.22C487.51 181.7 503.62 175.09 519.68 168.21C537.94 160.39 556.09 152.13 574.74 145.26C595.18 137.73 618.04 130.47 639.58 127.31C659.03 124.45 678.83 123.59 698.5 122.9C727.83 121.88 757.14 121.8 786.5 121.95C814.78 122.1 843.53 122.93 871.5 126.89C888.44 129.29 901.82 131.66 909.92 148.59C923.76 177.51 890.57 206.07 869.83 221.35C865.47 224.56 860.45 227.32 856.44 230.95C834.67 250.65 807.4 264.24 781.71 278.21C739.86 300.96 697.51 322.77 654.33 342.86C643.14 348.07 631.87 353.41 620.32 357.78C611.98 360.94 603.48 363.11 595.43 366.93C586.2 371.31 577.41 373.93 573.97 384.5C578.83 392.72 585.21 396.59 592.91 401.56C595.34 403.13 597.34 405.19 599.72 406.78C609.55 413.36 619.92 418.84 629.36 426.06C640.11 434.28 649.63 443.9 660.13 452.4C676.54 465.69 693.35 478.45 709.84 491.64C722.93 502.1 735.03 514.17 748.89 523.58C758.22 529.92 767.71 536.04 776.86 542.62C779.82 544.75 785.71 550.59 788.87 551.51C791.83 552.36 795.91 551.24 799 551.3ZM331.5 112.72C327.8 115.3 323.44 116.68 319.87 119.38C314.33 123.58 309.57 129.25 304.79 134.27C298.45 140.93 291.84 147.36 285.39 153.9C268.16 171.38 250.52 190.12 237.6 211.1C233.97 217 231.97 223.39 229.1 229.63C222.87 243.16 216.08 256.09 211.97 270.53C202.86 302.51 201.17 341.55 205.18 374.49C206.29 383.56 208.06 393.59 212.89 401.5C215.06 405.05 220.85 407.57 221.82 411.52C224.93 424.27 220.66 440.92 224.5 453.07C226.54 448.55 228.58 444.02 230.63 439.5C226.73 439.47 226.44 435.87 226.23 432.5C225.75 424.93 225.24 416.27 226.53 408.8C227.47 403.31 231.15 402.25 234.63 399C240.27 393.75 246.45 388.48 252.87 384.32C253.89 383.66 254.28 382.44 255.16 381.72C257.43 379.86 262.74 376.74 265.5 376.46C265.54 378.66 264.74 381.33 265.71 382.5C271.67 375.67 276.78 368.05 282.77 361.25C288.17 355.12 294.77 349.79 300.65 344.18C307.27 337.87 313.51 331.1 320.39 324.91C331.04 315.35 348.05 305.48 353.84 292.36C354.89 289.98 357.13 282.88 357.24 280.5C357.42 276.62 355.34 271.77 354.56 267.96C352.61 258.5 350.71 249 348.81 239.52C346.07 225.79 343.65 212.01 341.44 198.18C340.35 191.36 338.66 184.41 338.33 177.5C338.09 172.48 339.02 167.52 339 162.5C338.97 156.05 337.89 149.63 337.49 143.2C337.07 136.57 337.41 129.46 335.47 123.03C334.89 121.1 333.31 119.72 332.69 117.95C332.27 116.76 332.85 115.63 332.58 114.51C332.41 113.84 331.73 113.38 331.5 112.72ZM365 214.3C365 219.2 366.22 223.78 366.97 228.53C367.79 233.74 367.74 239.21 369.22 244.31C369.45 245.13 370.18 245.66 370.42 246.53C371.17 249.29 371.03 252.59 371.44 255.43C372.25 261.08 373.37 267.27 375.5 272.6C380.2 272.78 382.92 269.75 386.48 266.95C392.59 262.15 397.99 256.22 404.5 252C404.28 239.36 404.06 226.73 403.83 214.09C403.95 211.89 403.36 210.54 403.03 208.47C402.37 204.25 403.63 199.75 402.97 195.53C402.68 193.69 401.89 191.83 401.5 190C388.33 190.17 375.17 190.33 362 190.5C362 195.38 363.04 210.61 365 214.3ZM619.82 621C618 626.75 608.53 626.38 603.5 626.87C587.52 628.42 571.5 629.22 555.5 630.38C554.78 629.58 554.06 628.79 553.34 628C555.96 628 558.88 628.37 561.47 627.97C565 627.42 568.91 626.38 572.5 626.38C573.51 626.38 574.35 627.05 575.47 626.97C576.59 626.89 577.41 626.11 578.53 626.03C579.65 625.95 580.49 626.63 581.5 626.63C586.05 626.63 591.06 625.73 595.53 625.03C598.78 624.52 602.22 625.48 605.47 624.97C610.05 624.25 615.68 623.23 619.82 621Z" fill="#673114" fill-rule="evenodd" stroke="#673114" stroke-width="0.25" stroke-linejoin="round"/>
<path d="M533.05 454.23C536.41 454.21 539.76 454.2 543.12 454.18C545.45 455.19 547.92 454.9 550.44 455.32C553.99 455.9 557.88 457.09 561.23 458.41C582.05 466.58 601.6 481.31 612 501.41C614.39 506.03 621 520 620 524.68C599.1 510.32 577.71 516.74 564.7 537.24C554.04 554.01 550.53 575.04 549.61 594.5C549.14 604.44 549.11 615.31 552.07 624.87C552.06 625.47 552.06 626.07 552.05 626.67C549.42 630.22 541.9 628.99 537.53 629.35C529.87 629.99 522.19 630.77 514.5 630.97C509.32 631.1 504.12 630.46 499 630.82C498.67 630.8 498.33 630.77 498 630.74C489.46 628.63 480.59 627 472.79 622.58C445.73 607.24 429.22 581.62 420.14 552.52C417.51 544.09 415.4 534.35 415.29 525.5C415.26 523.01 414.65 519.49 415.73 517.19C416.77 514.98 419.87 512.82 421.6 511.11C426.64 506.15 432 501.43 437.55 497.08C458.8 480.46 482.8 467.26 508.73 459.32C513.92 457.73 519.37 456.27 524.74 455.37C527.55 454.89 530.47 455.26 533.05 454.23ZM837.23 693.71C845.08 694.2 856.01 694.85 860.97 687.5C861.01 685.84 861.22 684.42 860.63 682.8C858.16 675.91 841.92 665.81 835.64 661.88C826.12 655.91 816.21 650.39 806.17 645.35C800.29 642.39 794.38 638.34 788.02 636.5C774.26 632.5 759.11 633.28 745.15 635.5C745.36 639 745.58 642.5 745.79 646C745.36 647.33 744.93 648.67 744.5 650C742.4 649.22 741.51 649.64 739.5 649.63C737.29 649.61 734.71 648.69 732.5 648.38C722.44 646.96 715.13 647.76 710 637.5C712.13 635.37 712.64 634.22 712.78 631.34C712.81 630.81 712.28 629.97 712.41 629.53C713.16 626.86 714.88 629.08 712 625.5C715.42 623.53 714.64 620.12 716.49 616.83C719.18 612.03 728.66 608.97 729.5 605C724.67 607.83 719.83 610.67 715 613.5C717.9 607.69 730.74 600.8 737 599.5C736.15 601.12 734.87 602.69 733 603.44C732.42 603.67 731.5 603.12 731.19 603.75C730.85 604.42 731.18 604.78 731 605.5C737.17 603.15 743.33 600.79 749.5 598.44C749.39 596.12 751.01 593.91 752.5 592C759.81 588.52 768.67 590.25 776.5 590.63C777.76 590.69 779.2 590.19 780.5 590.38C782.55 590.66 784.51 591.65 786.53 591.97C789.77 592.48 793.46 592.23 796.5 592.38C802.64 592.67 808.43 594.77 814.5 595.63C820.68 596.49 827.39 597.13 833.5 598.38C835.62 598.81 837.55 600.37 839.69 600.81C842.16 601.33 844.93 601.28 847.31 602.19C848.98 602.82 850.18 603.96 852 604.5C852.69 604.71 858.56 606.49 858.56 606.5C858.86 607.03 857.84 607.49 857.5 608C858.47 607.81 860.4 607.05 861.34 607.22C862.17 607.36 862.96 608.41 863.66 608.84C867.49 611.19 871.74 612.37 875.5 615C876.1 615.42 878.39 615.99 878.59 616.53C878.8 617.08 877.31 618.18 877 618.5C879.17 618.33 881.33 618.17 883.5 618C883.5 618.54 883.04 620.89 883.22 621.28C883.63 622.16 889.65 620.1 888 625.5C889.44 625.35 887.88 626.27 889.31 625.75C889.85 625.55 889.99 624.43 890.53 624.41C891.66 624.36 891.76 626.13 892.53 626.59C892.83 626.77 893.53 626.34 894 626.56C894.75 626.92 898.32 629.89 898.59 630.53C898.91 631.28 897.69 631.79 898.53 632.59C898.77 632.82 899.17 632.34 899.5 632.38C900.11 632.44 900.92 632.82 901.5 633C901.29 635 900.14 635.51 900.22 636.28C900.28 636.94 901.44 636.14 901.81 636.75C902.82 638.4 902.69 641.75 904.19 643.25C904.91 643.98 906.25 642.46 906.75 643.69C907.2 644.79 905.53 644.24 906 646.5C911.09 644.66 905.09 640.59 903 638.5C906.75 635.68 905.64 638.58 906.56 640C907.34 641.2 909.45 642.18 910.5 643C910.51 643.43 910.31 645.13 910.41 645.47C910.49 645.76 911.69 646.28 911.56 646.5C910.37 648.64 909.01 644.82 908.5 649C911.99 649.73 910.14 646.91 912 652.5C909.56 654.8 911.88 652.16 909.72 653.22C909.62 653.27 908.86 655.52 908.5 656C906.32 651.58 909.35 648.47 902.5 647C903.83 648.33 905.17 649.67 906.5 651C905.1 651.17 903.71 651.33 902.31 651.5C904.4 653.3 905.13 656.59 907.17 658.24C907.86 658.8 908.96 657.93 909.44 659C909.99 660.23 908.43 659.07 909.2 661.5C911.34 661.34 910.6 660.94 912 659.5C911.69 660.72 910.48 662.54 910.35 663.64C910.13 665.43 911.18 664.01 911.39 664.42C911.67 664.97 911.08 665.8 911.2 666.45C911.56 668.29 912.94 670.36 913.5 672.22C914 670.65 914.5 669.07 915 667.5C916.32 671.14 914.01 671.02 914.31 673.44C914.39 674.11 915.3 674.06 915.4 674.54C915.6 675.52 914.86 677.28 915.01 678.48C915.32 681.09 916.88 683.36 917.53 685.76C918.89 690.83 918.67 696.31 920.02 701.38C920.74 704.08 922.29 706.68 922.99 709.53C923.86 713.12 923.22 716.75 924.32 720.3C931.45 743.37 931.77 770.41 924.32 793.7C923.64 795.81 923.39 798.16 922.84 800.33C922.32 802.36 921.31 804.02 920.51 805.89C919.38 808.56 919.03 811.7 917.87 814.33C916.27 817.94 913.55 821.47 911.3 824.72C901.25 839.23 889.24 855 870.49 858.03C836.78 863.46 816.14 831.01 809.1 802.43C807.75 796.95 807.93 791.13 806.62 785.7C805.4 780.69 804.99 777.85 804.83 772.5C804.57 764.24 805.53 756.53 806.72 748.43C808.22 738.15 811.95 715.3 819.31 707.79C821.15 705.9 824.12 704.67 826.44 703.5C825.63 702.83 824.81 702.17 824 701.5C829.08 698.96 832.67 697.11 837.23 693.71ZM714 614.5C713.68 616.04 713.37 615.44 715 616.5C714.02 616.62 712.99 617.5 712.22 616.28C710.96 614.3 713.26 614.59 714 614.5ZM518 626.58C516 626.58 514 626.58 512 626.58C513.17 627.05 514.33 627.53 515.5 628C516.33 627.53 517.17 627.05 518 626.58ZM912.66 653C913.12 653.29 913.77 653.04 914.28 653.22C915.68 653.69 915.5 657.04 915.5 658C914.55 657.83 913.61 657.67 912.66 657.5C912.66 656 912.66 654.5 912.66 653ZM918.5 656C919 656.83 919.5 657.67 920 658.5C921.68 659.64 921.32 659.25 921.5 661C920.33 660.5 919.17 660 918 659.5C918.17 658.33 918.33 657.17 918.5 656ZM913.5 659C916.77 660.69 914.53 661.32 917 664.5C915.95 665 914.9 665.5 913.85 666C913.85 664.5 913.85 663 913.85 661.5C913.74 660.67 913.62 659.83 913.5 659ZM925.5 673C924.33 671.5 923.17 670 922 668.5C924.63 668.77 925.85 670.18 925.5 673ZM921.5 673C921.67 674.17 921.83 675.33 922 676.5C921.5 677 921 677.5 920.5 678C920.33 676.83 920.17 675.67 920 674.5C920.5 674 921 673.5 921.5 673ZM922.5 680C923.23 682.47 923.71 683.3 926 684.5C925.17 685 924.33 685.5 923.5 686C922.67 684.5 921.83 683 921 681.5C921.5 681 922 680.5 922.5 680ZM930.5 681C930.67 682.17 930.83 683.33 931 684.5C930.17 685.33 929.33 686.17 928.5 687C928 686.17 927.5 685.33 927 684.5C929.35 683.76 929.76 683.35 930.5 681ZM268.81 708.5C269.96 705.76 269.18 702.64 269.96 699.54C271.3 694.2 277.79 688.6 282.66 686.19C296.75 679.24 314.1 680.75 327.67 687.71C335.72 691.84 344.38 697.43 344.18 707.5C343.95 718.6 332.01 725.78 322.53 728.05C308.43 731.42 292.38 729.16 280.28 721.21C277.7 719.51 274.27 717.57 272.46 714.97C271.08 713 270.24 710.55 268.81 708.5ZM926.5 687C926.83 688 927.17 689 927.5 690C926.67 689.5 925.83 689 925 688.5C925.5 688 926 687.5 926.5 687ZM810.5 707C810.83 707.67 811.17 708.33 811.5 709C811.5 709 812.78 707.79 812.78 708.72C812.78 709.6 812.37 709.86 811.5 709.94C810.33 710.04 809.79 709.11 809 708.5C809.5 708 810 707.5 810.5 707ZM942.5 757C942.5 758.67 942.5 760.33 942.5 762C942.5 760.33 942.5 758.67 942.5 757ZM639.17 873C639.72 873.24 640.45 872.89 640.75 873.69C640.81 873.85 640.15 879.23 640.5 881C659.17 888 677.83 895 696.5 902C697.67 905.5 698.83 909 700 912.5C702.6 912.06 702.26 912.87 704.03 914.47C708.25 918.27 708.22 918.05 709.5 924C709.9 924.31 711.08 925.4 711.53 925.59C711.82 925.72 712.24 925.18 712.47 925.41C713.19 926.1 712.92 927.08 713.72 927.78C714.5 928.47 715.68 928.06 716.47 929.03C718.6 931.66 718.64 935.88 721 938.5C723.74 941.54 728.32 940.84 730.47 945.03C731.56 947.16 732.14 950.06 733.53 951.97C734.67 953.53 737.16 953.61 738.47 955.03C740.61 957.36 740.37 960.12 744 959.5C745.61 962.05 747.22 964.6 748.83 967.15C740.05 966 731.32 964.73 722.73 962.54C718.09 961.36 713.36 959.92 708.8 958.5C706.35 957.74 704.01 956.36 701.46 955.87C694.45 954.53 687.62 953.24 680.93 950.42C675.31 948.04 669.37 945.55 664.22 942.23C660.55 939.86 656.15 935.13 652.87 933.52C648.16 931.2 642.1 930.55 637 929.63C637.05 926.39 637.63 924.24 639 921.5C637.51 917.49 638.61 913.65 637.97 909.53C637.63 907.39 636.75 905.84 637.03 903.53C637.22 901.92 637.93 900.28 637.78 898.66C637.59 896.57 636.13 894.68 636 892.5C635.89 890.55 636.74 889.28 636.97 887.47C637.22 885.46 636.38 883.42 636 881.5C639.64 877.86 638.79 878.68 639.17 873ZM768.5 903C769 903.83 769.5 904.67 770 905.5C767.85 905.24 768.21 905.36 768.5 903ZM777.5 911C778.17 911.33 778.83 911.67 779.5 912C780 912.83 780.5 913.67 781 914.5C778.12 914.5 777.13 914.01 777.5 911ZM792 918.5C792 919.17 792 919.83 792 920.5C791 920.5 790 920.5 789 920.5C790.16 918.73 790.22 918.68 792 918.5ZM799.5 929C797.39 926.89 794.94 925.58 798 923.5C797 922.5 796 921.5 795 920.5C799.05 920.92 800.23 925.13 799.5 929ZM835 943.04C837.34 944.69 839.68 946.33 842.02 947.98C839.22 949.74 836.14 947.57 833.31 946.19C830.97 945.05 828.03 944.95 825.69 943.81C822.22 942.12 819.19 940.37 815.5 939C815.71 935.68 807.19 934.03 806 928.5C807.44 929.02 807.42 929.85 808.72 930.78C809.31 931.21 810.3 931.14 810.97 931.53C811.77 932 812.28 932.92 813.03 933.47C816.89 936.28 821.63 938.79 826 940.5C828.96 941.66 832.37 944.61 835 943.04ZM805.5 934C804.33 932.83 803.17 931.67 802 930.5C804.63 930.54 805.46 931.37 805.5 934ZM818.2 930.8C818.13 931.37 818.07 931.93 818 932.5C818.5 933 819 933.5 819.5 934C820.03 933.62 820.57 933.24 821.1 932.86C822.07 933.57 823.04 934.27 824.01 934.98C823.17 935.65 822.34 936.33 821.5 937C819.67 935.83 817.83 934.67 816 933.5C816 932.83 816 932.17 816 931.5C816.73 931.27 817.47 931.03 818.2 930.8ZM811 936.5C808.96 936.47 808.58 936.08 807 934.5C809.04 934.53 809.42 934.92 811 936.5Z" fill="#fffffe" fill-rule="evenodd" stroke="#fffffe" stroke-width="0.25" stroke-linejoin="round"/>
<path d="M417.5 277.05C418.01 271.68 421.71 267.51 424.52 263.03C426.76 259.47 428.91 255.47 432.17 252.7C444.77 242 466.33 235.64 482.49 234.64C490.53 234.15 509.09 233.65 511.76 243.77C514.15 252.81 499.87 261.21 493.73 265.29C484.09 271.69 471.85 276.6 460.48 279.03C454.98 280.2 449.4 280.56 443.87 281.49C435.79 282.86 423.63 283.52 417.5 277.05ZM448.5 237C448.2 239.92 445.86 240.5 443 240.5C444.83 239.33 446.67 238.17 448.5 237ZM434 246C434.17 245.67 434.33 245.33 434.5 245C436 244.5 437.5 244 439 243.5C438.17 244.33 437.33 245.17 436.5 246C435.67 246 434.83 246 434 246ZM434 246C434 246.5 434 247 434 247.5C433.17 248 432.33 248.5 431.5 249C431 249 430.5 249 430 249C431.33 248 432.67 247 434 246ZM430 249C428.55 254.81 422.78 259.16 421 264.5C417.17 268 413.33 271.5 409.5 275C411.05 270.35 415.58 267.92 418.47 263.97C422.16 258.9 424.63 252.58 430 249ZM758.17 553.06C769.62 561.21 787.09 571.74 801.43 570.9C813.42 571.34 825.55 570.38 837.52 571.19C857.6 572.54 878.28 575.28 897.26 582.25C910.95 587.28 923.38 595.59 932.46 607.07C934.53 609.68 936.1 612.66 938.14 615.28C940.17 617.89 942.83 620.01 945 622.52C948.59 626.69 951.64 631.41 954.44 636.14C971.57 665.07 976.42 700.1 978.78 733C978.5 733.17 978.22 733.33 977.94 733.5C978.25 735 978.57 736.5 978.88 738C978.88 751.11 978.87 764.23 978.87 777.34C978.75 777.39 978.64 777.45 978.52 777.5C978.32 778.83 978.12 780.17 977.92 781.5C978.2 781.67 978.48 781.83 978.77 782C976.49 811.05 972.81 839.78 964.24 867.7C958.41 886.71 949.8 906.73 934.15 919.91C931.41 918.78 928.36 919.94 925.5 919.94C921.86 919.94 918.12 919.35 914.5 919.38C910.66 919.4 906.49 920 902.5 920C899.84 920 897.01 919.38 894.5 919.38C891.88 919.38 889.17 920.16 886.53 919.97C885.43 919.89 884.61 919.07 883.5 919.06C882.44 919.05 881.72 919.82 880.66 919.78C879.05 919.72 877.16 918.39 875.5 918.38C874.5 918.37 873.8 918.94 872.69 918.81C871.24 918.64 869.75 917.47 868.31 917.19C866.45 916.82 864.55 917.18 862.69 916.81C861.22 916.52 859.78 915.49 858.31 915.19C855.14 914.53 851.82 914.56 848.69 913.81C844.08 912.71 839.87 909.5 835.31 908.19C826.06 905.52 817.67 900.26 809.34 895.16C807.98 894.32 806.36 894.25 805.03 893.47C803.72 892.7 803.44 891.03 802.28 890.22C801.12 889.4 799.29 889.37 798.03 888.47C794.36 885.84 791.54 882.17 787.12 881C791.8 873.31 799.56 866.72 806.05 860.54C810.54 856.25 815.01 853.21 813.5 846.33C807.94 843.1 805.28 847.18 801.57 851.08C794.55 858.46 787.92 866.73 780.08 873.24C777.96 872.45 774.83 870.96 773.19 869.31C771.75 867.88 770.85 865.63 768.97 864.53C768.3 864.14 767.31 864.21 766.72 863.78C764.71 862.34 763.17 859.83 761.31 858.19C760.59 857.55 759.41 857.45 758.69 856.81C757.97 856.18 757.81 855.09 757 854.56C756.41 854.18 755.99 854.83 755.53 854.59C753.47 853.54 752.03 850.74 749.97 849.53C749.02 848.98 748.06 849 747.19 848.31C746.65 847.89 746.6 846.99 745.97 846.53C745.28 846.03 744.4 846.22 743.72 845.78C741.66 844.46 740.14 841.8 737.97 840.53C735.28 838.96 730.96 836.79 729.5 834C726.28 834.99 723.94 830.95 721 829.56C720.47 829.31 719.91 829.79 719.53 829.59C718.08 828.85 716.93 826.98 715.31 826.19C713.33 825.22 710.61 824.93 708.72 823.78C708.1 823.4 707.99 822.5 707.31 822.25C706.67 822.01 706.03 822.81 705.53 822.59C704.9 822.32 703.97 820.58 703.5 820C700.72 819.97 697.98 819.63 695.69 817.81C694.65 816.99 694.35 816.04 693 815.5C690.8 814.62 689.35 814.44 687.5 813C687.5 814.33 687.5 815.67 687.5 817C686.93 816.16 686.9 815.16 685.66 815.22C684.23 815.29 683.07 817.9 682.31 818.81C680.54 820.95 676.34 822.75 674.04 823.5C674.19 821.33 674.35 819.17 674.5 817C670 819.83 665.5 822.67 661 825.5C661.67 823.83 662.33 822.17 663 820.5C659.66 821.61 656.26 823.65 654.5 827C653.67 826.94 652.83 826.89 652 826.83C653.33 825.39 654.67 823.94 656 822.5C655.93 821.73 655.86 820.97 655.8 820.2C674.56 805.24 685.42 781.43 691.18 758.55C693.13 750.81 695.55 741.96 694.96 734C695.03 733.67 695.1 733.34 695.17 733.01C697.09 726.57 696.49 718.31 696.55 711.5C696.67 700.22 697.77 688.13 695.96 677C695.96 676.33 695.96 675.67 695.96 675C695.91 668.5 695.86 662 695.81 655.5C696.15 655.33 696.49 655.17 696.83 655C697.06 657 697.28 659 697.5 661C697.5 658 697.5 655 697.5 652C697.28 652.33 697.06 652.67 696.83 653C696.52 652.39 696.21 651.78 695.9 651.17C697.82 648.18 695.74 652.1 696.06 648.5C696.17 647.25 697.26 646.64 697.6 645.47C698.35 642.95 697.63 639.17 697.7 636.5C697.91 627.76 698.36 618.37 703.39 610.87C710.21 600.71 723.16 596.27 732.78 589.32C736.25 586.81 742.9 582.95 743.62 579C743.55 578.67 743.47 578.33 743.4 578C745.27 575.74 747.13 573.48 749 571.22C754.21 566.6 755.11 559.06 758.17 553.06ZM745.79 646C746.73 653.02 748.88 659.26 751.18 665.89C743.9 675.73 739.78 689.31 736.81 701.31C736.28 703.49 734.73 705.47 734.19 707.69C733.23 711.57 733.15 716.05 732 719.5C734.17 721.67 736.33 723.83 738.5 726C744.75 725.58 749.79 722.89 755.69 721.19C765.75 718.28 775.87 714.93 785.69 711.19C788.61 710.07 791.82 708.66 794.69 707.7C795.91 707.29 797.28 707.96 798.34 706.76C798.87 706.17 799.03 705.33 799.5 704.7C800.17 704.83 800.63 705.65 801.31 705.65C801.87 705.65 802.15 704.86 802.69 704.7C808.79 702.83 816.48 702.06 820.5 696.7C821.16 696.91 821.62 697.63 822.31 697.73C824.79 698.09 827.94 694.44 829 692.72C831.74 693.05 834.48 693.38 837.23 693.71C832.67 697.11 829.08 698.96 824 701.5C824.81 702.17 825.63 702.83 826.44 703.5C824.12 704.67 821.15 705.9 819.31 707.79C811.95 715.3 808.22 738.15 806.72 748.43C805.53 756.53 804.57 764.24 804.83 772.5C804.99 777.85 805.4 780.69 806.62 785.7C807.93 791.13 807.75 796.95 809.1 802.43C816.14 831.01 836.78 863.46 870.49 858.03C889.24 855 901.25 839.23 911.3 824.72C913.55 821.47 916.27 817.94 917.87 814.33C919.03 811.7 919.38 808.56 920.51 805.89C921.31 804.02 922.32 802.36 922.84 800.33C923.39 798.16 923.64 795.81 924.32 793.7C931.77 770.41 931.45 743.37 924.32 720.3C923.22 716.75 923.86 713.12 922.99 709.53C922.29 706.68 920.74 704.08 920.02 701.38C918.67 696.31 918.89 690.83 917.53 685.76C916.88 683.36 915.32 681.09 915.01 678.48C914.86 677.28 915.6 675.52 915.4 674.54C915.3 674.06 914.39 674.11 914.31 673.44C914.01 671.02 916.32 671.14 915 667.5C914.5 669.07 914 670.65 913.5 672.22C912.94 670.36 911.56 668.29 911.2 666.45C911.08 665.8 911.67 664.97 911.39 664.42C911.18 664.01 910.13 665.43 910.35 663.64C910.48 662.54 911.69 660.72 912 659.5C910.6 660.94 911.34 661.34 909.2 661.5C908.43 659.07 909.99 660.23 909.44 659C908.96 657.93 907.86 658.8 907.17 658.24C905.13 656.59 904.4 653.3 902.31 651.5C903.71 651.33 905.1 651.17 906.5 651C905.17 649.67 903.83 648.33 902.5 647C909.35 648.47 906.32 651.58 908.5 656C908.86 655.52 909.62 653.27 909.72 653.22C911.88 652.16 909.56 654.8 912 652.5C910.14 646.91 911.99 649.73 908.5 649C909.01 644.82 910.37 648.64 911.56 646.5C911.69 646.28 910.49 645.76 910.41 645.47C910.31 645.13 910.51 643.43 910.5 643C909.45 642.18 907.34 641.2 906.56 640C905.64 638.58 906.75 635.68 903 638.5C905.09 640.59 911.09 644.66 906 646.5C905.53 644.24 907.2 644.79 906.75 643.69C906.25 642.46 904.91 643.98 904.19 643.25C902.69 641.75 902.82 638.4 901.81 636.75C901.44 636.14 900.28 636.94 900.22 636.28C900.14 635.51 901.29 635 901.5 633C900.92 632.82 900.11 632.44 899.5 632.38C899.17 632.34 898.77 632.82 898.53 632.59C897.69 631.79 898.91 631.28 898.59 630.53C898.32 629.89 894.75 626.92 894 626.56C893.53 626.34 892.83 626.77 892.53 626.59C891.76 626.13 891.66 624.36 890.53 624.41C889.99 624.43 889.85 625.55 889.31 625.75C887.88 626.27 889.44 625.35 888 625.5C889.65 620.1 883.63 622.16 883.22 621.28C883.04 620.89 883.5 618.54 883.5 618C881.33 618.17 879.17 618.33 877 618.5C877.31 618.18 878.8 617.08 878.59 616.53C878.39 615.99 876.1 615.42 875.5 615C871.74 612.37 867.49 611.19 863.66 608.84C862.96 608.41 862.17 607.36 861.34 607.22C860.4 607.05 858.47 607.81 857.5 608C857.84 607.49 858.86 607.03 858.56 606.5C858.56 606.49 852.69 604.71 852 604.5C850.18 603.96 848.98 602.82 847.31 602.19C844.93 601.28 842.16 601.33 839.69 600.81C837.55 600.37 835.62 598.81 833.5 598.38C827.39 597.13 820.68 596.49 814.5 595.63C808.43 594.77 802.64 592.67 796.5 592.38C793.46 592.23 789.77 592.48 786.53 591.97C784.51 591.65 782.55 590.66 780.5 590.38C779.2 590.19 777.76 590.69 776.5 590.63C768.67 590.25 759.81 588.52 752.5 592C751.01 593.91 749.39 596.12 749.5 598.44C743.33 600.79 737.17 603.15 731 605.5C731.18 604.78 730.85 604.42 731.19 603.75C731.5 603.12 732.42 603.67 733 603.44C734.87 602.69 736.15 601.12 737 599.5C730.74 600.8 717.9 607.69 715 613.5C719.83 610.67 724.67 607.83 729.5 605C728.66 608.97 719.18 612.03 716.49 616.83C714.64 620.12 715.42 623.53 712 625.5C714.88 629.08 713.16 626.86 712.41 629.53C712.28 629.97 712.81 630.81 712.78 631.34C712.64 634.22 712.13 635.37 710 637.5C715.13 647.76 722.44 646.96 732.5 648.38C734.71 648.69 737.29 649.61 739.5 649.63C741.51 649.64 742.4 649.22 744.5 650C744.93 648.67 745.36 647.33 745.79 646ZM714 614.5C713.26 614.59 710.96 614.3 712.22 616.28C712.99 617.5 714.02 616.62 715 616.5C713.37 615.44 713.68 616.04 714 614.5ZM912.66 653C912.66 654.5 912.66 656 912.66 657.5C913.61 657.67 914.55 657.83 915.5 658C915.5 657.04 915.68 653.69 914.28 653.22C913.77 653.04 913.12 653.29 912.66 653ZM918.5 656C918.33 657.17 918.17 658.33 918 659.5C919.17 660 920.33 660.5 921.5 661C921.32 659.25 921.68 659.64 920 658.5C919.5 657.67 919 656.83 918.5 656ZM913.5 659C913.62 659.83 913.74 660.67 913.85 661.5C913.85 663 913.85 664.5 913.85 666C914.9 665.5 915.95 665 917 664.5C914.53 661.32 916.77 660.69 913.5 659ZM925.5 673C925.85 670.18 924.63 668.77 922 668.5C923.17 670 924.33 671.5 925.5 673ZM921.5 673C921 673.5 920.5 674 920 674.5C920.17 675.67 920.33 676.83 920.5 678C921 677.5 921.5 677 922 676.5C921.83 675.33 921.67 674.17 921.5 673ZM922.5 680C922 680.5 921.5 681 921 681.5C921.83 683 922.67 684.5 923.5 686C924.33 685.5 925.17 685 926 684.5C923.71 683.3 923.23 682.47 922.5 680ZM930.5 681C929.76 683.35 929.35 683.76 927 684.5C927.5 685.33 928 686.17 928.5 687C929.33 686.17 930.17 685.33 931 684.5C930.83 683.33 930.67 682.17 930.5 681ZM926.5 687C926 687.5 925.5 688 925 688.5C925.83 689 926.67 689.5 927.5 690C927.17 689 926.83 688 926.5 687ZM810.5 707C810 707.5 809.5 708 809 708.5C809.79 709.11 810.33 710.04 811.5 709.94C812.37 709.86 812.78 709.6 812.78 708.72C812.78 707.79 811.5 709 811.5 709C811.17 708.33 810.83 707.67 810.5 707ZM942.5 757C942.5 758.67 942.5 760.33 942.5 762C942.5 760.33 942.5 758.67 942.5 757ZM639.17 873C638.79 878.68 639.64 877.86 636 881.5C636.38 883.42 637.22 885.46 636.97 887.47C636.74 889.28 635.89 890.55 636 892.5C636.13 894.68 637.59 896.57 637.78 898.66C637.93 900.28 637.22 901.92 637.03 903.53C636.75 905.84 637.63 907.39 637.97 909.53C638.61 913.65 637.51 917.49 639 921.5C637.63 924.24 637.05 926.39 637 929.63C636.33 929.63 635.67 929.64 635 929.64C634.67 928.59 634.33 927.55 634 926.5C637.75 922.59 635.87 911.6 635.63 906.5C635.44 902.77 633.32 900.02 635 896.5C634.58 895.09 633.44 893.59 633.41 893.47C632.96 891.69 634.94 885.46 634.94 883.5C634.94 882.33 634.23 880.67 634 879.5C635.97 875.55 634.97 872.76 637 868.5C637.72 870 638.44 871.5 639.17 873Z" fill="#dfdad1" fill-rule="evenodd" stroke="#dfdad1" stroke-width="0.25" stroke-linejoin="round"/>
<path d="M403.83 214.09C390.89 214.16 377.94 214.23 365 214.3C363.04 210.61 362 195.38 362 190.5C375.17 190.33 388.33 190.17 401.5 190C401.89 191.83 402.68 193.69 402.97 195.53C403.63 199.75 402.37 204.25 403.03 208.47C403.36 210.54 403.95 211.89 403.83 214.09ZM186.75 396.95C188.07 402.73 189.96 408.31 192.99 413.43C195.73 418.08 198.93 419.19 198.77 425.05C193.48 423.64 188.29 420.51 183.32 418.16C174.01 413.78 160.87 409.62 155.11 400.36C149.73 391.68 154.27 382.85 145.52 373.98C138.12 366.48 114.26 360.84 123.62 346.16C129.54 336.87 140.12 341.68 147.59 345.92C160.67 353.35 170.12 363.98 175.54 378.05C177.5 383.14 178.06 388.4 179.5 393.59C181.92 394.71 184.33 395.83 186.75 396.95ZM198.9 433.93C199.18 441.97 199.45 450.01 199.73 458.05C191.13 457.6 182.38 454.53 174 452.73C156.57 448.98 139.12 445.28 121.69 441.72C111.82 439.7 98.56 438.19 100.96 424.5C103.01 412.85 115.35 415.46 123.36 417.29C138.41 420.72 153.75 424.7 168.97 427.29C174.53 428.23 180.07 429.61 185.56 430.84C189.92 431.82 194.81 432.11 198.9 433.93ZM543.12 454.18C539.76 454.2 536.41 454.21 533.05 454.23C526.82 453.86 520.64 454.36 514.5 455.17C503.64 456.6 493.18 458.01 482.67 461.25C456.14 469.43 432.92 484.95 410.67 501.13C400.04 508.86 389.34 516.46 378.57 524.02C376.64 525.38 369.72 530.83 367.64 530.62C366.85 530.54 365.97 529.83 365.28 529.5C369.57 522.28 376.54 516.68 382.61 511.02C388.62 505.42 394.14 499.31 400.14 493.69C401.34 492.56 403.2 491.7 404.24 490.66C404.91 489.99 405.12 489.01 405.72 488.24C410.66 481.84 418.61 476.51 424.77 471.31C443.86 455.19 465.5 440.49 489.78 433.44C508.2 428.09 529.64 425.59 548.19 431.4C554.17 433.28 566.17 438.73 562.42 446.94C559.54 453.27 548.78 453.85 543.12 454.18ZM199.97 483.06C199.37 490.98 198.77 498.91 198.17 506.83C183.21 505.45 169.23 505.85 155.09 511.58C149.92 513.67 144.8 516.55 140.2 519.68C137.74 521.36 135.43 523.48 132.54 524.41C126.36 526.39 118.76 522.98 117.19 516.37C114.7 505.89 125.03 500.47 132.63 496.1C148.29 487.09 166.48 482.35 184.53 482.18C189.68 482.13 194.8 483.05 199.97 483.06ZM194.43 539.33C194.03 546.66 190.53 556.54 186.62 563C175.55 563.26 164.66 567.19 155.04 572.55C150.19 575.25 144.94 580.82 139.38 581.72C132.79 582.79 126.24 578.07 125.22 571.42C123.89 562.67 133.11 557.72 139.37 553.9C155.67 543.95 175.38 538.59 194.43 539.33ZM167.69 600.85C165.71 608.59 163.72 616.33 161.74 624.08C151.35 625.68 141.8 627.95 132.42 632.92C127.53 635.51 120.63 641.96 115.51 642.88C109.53 643.95 102.84 640.54 101.3 634.32C99.11 625.43 106.48 620.6 112.97 616.48C126.7 607.79 151.56 598.62 167.69 600.85ZM620.84 613.97C620.5 616.31 620.16 618.66 619.82 621C615.68 623.23 610.05 624.25 605.47 624.97C602.22 625.48 598.78 624.52 595.53 625.03C591.06 625.73 586.05 626.63 581.5 626.63C580.49 626.63 579.65 625.95 578.53 626.03C577.41 626.11 576.59 626.89 575.47 626.97C574.35 627.05 573.51 626.38 572.5 626.38C568.91 626.38 565 627.42 561.47 627.97C558.88 628.37 555.96 628 553.34 628C552.91 627.56 552.48 627.11 552.05 626.67C552.06 626.07 552.06 625.47 552.07 624.87C556.75 627.59 565.11 625.53 570.5 625.2C579.83 624.64 589.19 624.12 598.5 623.3C610.05 622.27 614.09 623.91 620.84 613.97ZM154.96 653.88C154.37 662.25 153.79 670.62 153.21 678.98C144.13 680.11 132.57 689.29 125.13 694.61C122.11 696.77 119.17 699.75 115.82 701.37C109.68 704.34 101.78 701.99 99.18 695.33C95.76 686.6 102.3 681.56 108.57 676.95C120.87 667.92 139.21 653.92 154.96 653.88ZM152.99 717.02C153.53 725.06 154.08 733.09 154.62 741.12C148.67 744.56 142.04 746.94 136.08 750.59C131.06 753.66 125.95 759.14 120.15 760.5C114.52 761.81 108.33 758.73 106.29 753.27C103.1 744.74 109.46 739.59 115.73 735.26C127.42 727.18 139.82 722.03 152.99 717.02ZM155.87 760.65C157.14 769.16 158.41 777.68 159.69 786.19C155.2 790.17 152.22 796.56 147.33 799.87C141.15 804.05 131.75 801.66 129.19 794.32C127.4 789.2 129.3 784.88 132.33 780.8C138.16 772.97 146.36 763.79 155.87 760.65ZM164.95 820.03C165.23 824.45 166.37 829.02 165.84 833.48C165.21 838.81 162.57 846.47 160.05 851.01C158.7 848.75 158.09 847.38 155.5 846.49C146.71 850.29 145.67 865.56 132.34 860.24C130.73 859.6 129.24 858.68 128.07 857.4C126.85 856.09 125.61 854.12 125.19 852.36C123.76 846.29 127.22 841.59 130.41 836.83C139.61 823.08 147.67 816.27 164.95 820.03ZM655.8 820.2C655.86 820.97 655.93 821.73 656 822.5C654.67 823.94 653.33 825.39 652 826.83C650.72 827.89 649.44 828.94 648.17 830C648.11 829.5 648.06 829 648 828.5C650.6 825.73 653.2 822.97 655.8 820.2ZM358.19 932.87C354.56 933.09 354.25 933.52 353.5 937C349 936.83 344.5 936.67 340 936.5C339.17 940.67 338.33 944.83 337.5 949C334.64 949 332.15 949.79 329.47 949.97C327.53 950.1 325.5 949.13 323.5 949C322.46 949.68 321.29 951.34 320.28 951.78C318.55 952.53 312.42 952.63 310.72 951.78C310.01 951.42 309.91 950.6 309.5 950C307.29 950.66 305.75 952.4 303.31 952.81C301.49 953.12 300.32 952.16 298.66 952.22C298 952.24 297.17 952.86 296.47 952.97C292.19 953.62 287.91 953.18 283.69 954.19C282.49 954.47 281.51 955.53 280.31 955.81C277.51 956.48 274.21 955.97 271.5 956.38C267.94 956.91 264.73 959 261.31 959.81C257.23 960.79 252.69 960.85 248.69 962.19C245.33 963.31 241.57 966.22 238.31 967.81C233.64 970.1 228.46 971.69 224.03 974.53C221.8 975.96 220.1 977.94 217.97 979.47C216.38 980.6 214.21 980.97 212.69 982.19C205.31 988.05 197.32 996.11 193.81 1005.31C192.32 1009.23 189.12 1011.94 194 1014.5C192.33 1014.86 190.67 1015.21 189 1015.57C171.33 1015.56 153.67 1015.55 136 1015.54C136.88 1005.38 140.99 995.08 143.69 985.27C148.71 967.05 155.02 949.33 160.82 931.35C165.46 916.96 168.85 902.22 173.38 887.78C176.94 876.4 180.86 865.14 184.34 853.75C185.7 849.29 187.73 844.84 188.77 840.3C189.76 836.01 189.45 831.48 190.5 827.28C217.56 867.8 256.49 897.84 301.67 915.82C313.43 920.5 325.51 924.46 337.72 927.7C344.28 929.45 352.24 930.08 358.19 932.87ZM626.83 876C626.89 877.5 626.94 879 627 880.5C626.64 880.67 626.29 880.83 625.93 881C625.96 879.5 625.98 878 626 876.5C626.28 876.33 626.56 876.17 626.83 876ZM148.43 888.27C145.55 898.01 142.66 907.74 139.77 917.48C136.04 913.34 134.44 905.91 128 905.5C125.47 908.43 122.79 911.72 120.95 915.12C119.43 917.93 118.68 920.45 115.94 922.46C109 927.55 98.1 923.22 97.02 914.5C96.38 909.26 99.47 904.67 101.92 900.29C107.66 890 116.83 880.15 129.5 880.11C137.23 880.08 142.39 884.27 148.43 888.27ZM625.97 900C626.32 900.17 626.66 900.33 627 900.5C626.78 902.33 626.56 904.17 626.33 906C625.89 905.83 625.44 905.67 625 905.5C625.32 903.67 625.65 901.83 625.97 900ZM626.98 909C627.32 909.17 627.66 909.33 628 909.5C627.8 911 627.6 912.5 627.39 914C627.25 912.33 627.12 910.67 626.98 909ZM126.19 959.84C125.11 965.84 122.81 971.71 121.11 977.57C120.38 980.05 120.36 982.04 118.12 983.17C112 979.25 98.94 971.54 97.32 964.25C95.5 956.06 103.44 948.61 111.47 950.04C116.43 950.92 122.81 956.27 126.19 959.84Z" fill="#8c4e24" fill-rule="evenodd" stroke="#8c4e24" stroke-width="0.25" stroke-linejoin="round"/>
<path d="M365 214.3C377.94 214.23 390.89 214.16 403.83 214.09C404.06 226.73 404.28 239.36 404.5 252C397.99 256.22 392.59 262.15 386.48 266.95C382.92 269.75 380.2 272.78 375.5 272.6C373.37 267.27 372.25 261.08 371.44 255.43C371.03 252.59 371.17 249.29 370.42 246.53C370.18 245.66 369.45 245.13 369.22 244.31C367.74 239.21 367.79 233.74 366.97 228.53C366.22 223.78 365 219.2 365 214.3ZM620 524.68C624.53 529.8 624.69 542.72 624.93 549.5C625.7 571.24 622.7 592.42 620.84 613.97C614.09 623.91 610.05 622.27 598.5 623.3C589.19 624.12 579.83 624.64 570.5 625.2C565.11 625.53 556.75 627.59 552.07 624.87C549.11 615.31 549.14 604.44 549.61 594.5C550.53 575.04 554.04 554.01 564.7 537.24C577.71 516.74 599.1 510.32 620 524.68ZM799 551.3C807.57 550.99 815.97 551.71 824.5 552.01C834.25 552.35 843.87 552.65 853.53 553.81C855.82 554.08 858.17 553.78 860.44 554.17C864.86 554.92 869.28 555.93 873.74 556.59C878.92 557.36 884.19 557.14 889.33 558.22C904.02 561.32 918.06 568.35 929.94 577.53C955.46 597.25 973.41 626.18 984.33 656.2C1005.03 713.08 1005.34 775.95 992.17 834.58C988.82 849.49 984.96 864.16 980.19 878.68C977.94 885.54 976.04 892.83 972.81 899.31C965.39 914.21 954.51 927.59 942.39 938.91C914.13 965.3 876.66 981.4 838.45 985.69C826.05 987.08 813.88 985.6 801.5 985.78C791.52 985.93 781.55 987.82 771.5 987.93C753.7 988.13 736.08 985.59 718.83 981.57C711.83 979.94 705.17 977.02 698.22 975.35C688.41 973 678.96 971.05 669.65 966.84C663.57 964.1 657.69 960.96 652.01 957.47C649.12 955.69 646.26 952.72 643.19 951.39C637.93 949.1 631.59 949.95 626 949.69C624.83 949.29 623.66 948.9 622.49 948.5C622.73 945.5 622.96 942.5 623.19 939.5C621.13 937.83 619.06 936.17 617 934.5C617 933.5 617 932.5 617 931.5C617.67 930.65 618.33 929.8 619 928.95C622.35 928.92 625.7 928.89 629.05 928.86C631.03 929.12 633.02 929.38 635 929.64C635.67 929.64 636.33 929.63 637 929.63C642.1 930.55 648.16 931.2 652.87 933.52C656.15 935.13 660.55 939.86 664.22 942.23C669.37 945.55 675.31 948.04 680.93 950.42C687.62 953.24 694.45 954.53 701.46 955.87C704.01 956.36 706.35 957.74 708.8 958.5C713.36 959.92 718.09 961.36 722.73 962.54C731.32 964.73 740.05 966 748.83 967.15C755.31 970.42 775.59 968.82 783.5 968.28C789.24 967.88 794.95 967.05 800.69 966.74C807.22 966.38 813.93 967.44 820.5 967.4C834.58 967.31 848.65 965.59 862.14 961.5C855.43 956.99 848.73 952.48 842.02 947.98C839.68 946.33 837.34 944.69 835 943.04C831.34 940.35 827.67 937.67 824.01 934.98C823.04 934.27 822.07 933.57 821.1 932.86C820.14 932.17 819.17 931.48 818.2 930.8C815.66 927.11 810.83 924.19 807.19 921.36C799.72 915.54 792.7 909.17 785.29 903.29C782.09 900.74 777.03 896.18 772.63 897.16C769.95 897.76 767.19 900.91 764.91 902.41C759.31 906.11 753.72 909.81 748.17 913.57C744.76 915.89 741.15 919.35 737.2 916.5C751.49 902.08 765.78 887.66 780.08 873.24C787.92 866.73 794.55 858.46 801.57 851.08C805.28 847.18 807.94 843.1 813.5 846.33C815.01 853.21 810.54 856.25 806.05 860.54C799.56 866.72 791.8 873.31 787.12 881C785.69 883.26 785.35 885.7 786.24 888.36C787.86 893.21 800.35 904.43 804.6 908.04C827.61 927.55 865.38 938.1 893.5 949.19C905.21 944.59 926.66 930 934.15 919.91C949.8 906.73 958.41 886.71 964.24 867.7C972.81 839.78 976.49 811.05 978.77 782C978.8 780.45 978.84 778.89 978.87 777.34C978.87 764.23 978.88 751.11 978.88 738C978.85 736.33 978.81 734.67 978.78 733C976.42 700.1 971.57 665.07 954.44 636.14C951.64 631.41 948.59 626.69 945 622.52C942.83 620.01 940.17 617.89 938.14 615.28C936.1 612.66 934.53 609.68 932.46 607.07C923.38 595.59 910.95 587.28 897.26 582.25C878.28 575.28 857.6 572.54 837.52 571.19C825.55 570.38 813.42 571.34 801.43 570.9C803.36 565.56 802.3 558.33 802.3 552.5C801.2 552.1 800.1 551.7 799 551.3ZM837.23 693.71C834.48 693.38 831.74 693.05 829 692.72C821.27 689.83 811.72 689.16 803.58 686.97C794.07 684.41 784.68 681.28 775.26 678.32C769.68 676.56 760.01 674.45 755.41 671.09C753.62 669.78 752.66 667.42 751.18 665.89C748.88 659.26 746.73 653.02 745.79 646C745.58 642.5 745.36 639 745.15 635.5C759.11 633.28 774.26 632.5 788.02 636.5C794.38 638.34 800.29 642.39 806.17 645.35C816.21 650.39 826.12 655.91 835.64 661.88C841.92 665.81 858.16 675.91 860.63 682.8C861.22 684.42 861.01 685.84 860.97 687.5C856.01 694.85 845.08 694.2 837.23 693.71Z" fill="#292b2f" fill-rule="evenodd" stroke="#292b2f" stroke-width="0.25" stroke-linejoin="round"/>
<path d="M259.74 187.9C260.33 188.26 260.91 188.61 261.5 188.97C262.4 187.81 263.3 186.66 264.19 185.5C263.78 184.96 263.37 184.43 262.96 183.89C263.56 183.23 264.15 182.56 264.75 181.89C265.33 182.09 265.92 182.29 266.5 182.48C267.67 181.16 268.85 179.83 270.02 178.5C269.67 177.97 269.32 177.44 268.97 176.92C270.22 175.56 271.48 174.21 272.73 172.86C273.32 173.1 273.91 173.35 274.5 173.59C276.05 171.89 277.6 170.2 279.15 168.5C278.76 167.99 278.38 167.48 277.99 166.96C280.94 164.09 283.89 161.23 286.84 158.36C287.39 158.38 287.95 158.41 288.5 158.43C291.61 155.36 296.6 151.58 297.71 147.57C298.94 145.74 301.47 144.12 302.49 142.34C303.14 141.21 302.98 140.16 303.53 139.03C305.05 135.93 310.94 133.55 313.57 131.6C317 130.58 319.86 126.67 323.05 124.5C322.64 123.9 322.24 123.29 321.83 122.69C324.46 120.75 326.53 119.06 329.79 119.5C330.98 121.71 330.83 123.25 333 124.5C331.49 126.68 330.56 128.66 331.38 131.47C331.6 132.24 332.42 132.76 332.55 133.5C332.67 134.17 331.66 134.9 331.89 135.69C332.33 137.26 332.58 136.68 333.5 138C333.16 138.54 332.24 139.79 332.04 140.53C331.85 141.23 333.04 154.68 333.36 155.47C333.77 156.52 334.34 156.69 335 157.5C332.78 159.78 333.38 162.79 332.5 165.85C327.97 168.06 323.39 166.78 318.52 167.23C313.75 167.67 309.4 169.53 305.14 171.61C289.16 179.41 275.53 192.2 262.03 203.53C257.13 207.65 249.84 215.81 243.1 214.5C243.76 205.98 254.23 194.46 259.74 187.9ZM330.53 127C330.53 129.43 330.53 131.87 330.53 134.3C330.53 131.87 330.53 129.43 330.53 127ZM656.5 196C658.76 192.82 662.6 196.45 665.13 198.4C665.79 198.91 668.1 200.26 667.78 201.36C667.59 202.02 666.48 202.19 666 202.5C666.98 202.51 668.45 202.42 669.38 202.82C671.81 203.88 674.2 211.2 673.89 213.69C673.73 215.02 673.03 216.12 673 217.5C672.96 219.54 674.15 221.14 673.6 223.24C671.91 229.67 666.59 234.34 660.94 237.5C659.62 238.24 657.16 239.94 655.55 239.51C654.95 239.35 653.93 238.41 652.5 238C652.55 238.32 652.88 239.96 652.69 240.2C651.75 241.44 642.08 241.23 640.5 241.22C639.5 240.15 638.5 239.07 637.5 238C636.52 238.09 635.63 237.88 634.69 238.27C633.95 238.57 632.06 241.4 631.13 239.26C630.03 236.74 632.84 239.53 630.5 237C629.11 238.48 630.14 237.89 629.32 239.5C628.36 239.14 627.05 238.81 626.17 238.26C624.87 237.45 624.08 234.59 622.53 234.41C622.45 234.4 621.37 235.4 621.27 235.5C621.05 235.11 620.49 234.96 620.33 234.54C620.23 234.23 620.82 233.81 620.58 233.59C620.17 233.21 618.87 233.59 618.21 233.25C615.29 231.72 613.92 229.08 611.17 227.5C615.57 223.41 611.76 223.28 613.41 219.53C613.73 218.8 614.89 218.99 614.44 218C614.09 217.23 612.68 216.86 612 216.5C612.24 216.19 613.66 214.63 613.75 214.31C614.33 212.22 611.99 210.32 610.31 210.5C612.04 207.94 613.77 205.38 615.5 202.82C616.21 203.35 617.24 204.02 617.78 204.72C618 205 617.94 206.56 618.5 206.56C618.88 206.56 618.97 205.53 619 205.5C618.3 203.37 617.57 203.07 616.07 201.5C617.88 199.4 620.97 199.33 621.85 196.5C622.56 196.46 624.78 196.94 625.28 196.71C626.26 196.27 626.73 193.6 630.13 192.64C635.9 191.01 643.24 190.8 648.99 192.12C650.23 192.41 652.08 191.84 653.2 192.48C654 192.95 653.71 194.25 654.5 194.56C654.89 194.71 655.11 193.39 655.53 193.58C656.11 193.83 656.33 195.43 656.5 196ZM395 276.83C395.67 276.54 396.33 276.24 397 275.95C397.47 275.8 397.94 275.65 398.41 275.5C398.66 274.67 398.91 273.83 399.17 273C400.92 272.18 401.45 270.69 402.5 268.9C403.02 268.93 403.46 269.48 403.97 269.4C405.02 269.23 406.75 266.75 407.5 266C409.21 264.29 411.69 262.51 413 260.5C414.26 258.56 414.44 257.53 416.5 256C418.15 250.72 420.93 246.6 424 242C427.57 241.04 430.86 237.61 434.03 235.53C439.73 231.8 445.89 228.77 451.66 225.16C452.85 224.41 466.31 217.25 466.69 217.19C468.06 216.95 469.16 217.76 470.54 217.65C473.43 217.41 483.56 211.42 486.8 209.86C489.55 210.34 489.26 209.37 490.69 209.35C491.36 209.34 491.83 210.14 492.5 210.25C495.03 207.62 496.92 207.42 500.31 206.28C500.84 206.1 501.13 205.36 501.69 205.34C502.35 205.3 502.85 206.04 503.5 206.13C505.78 203.91 508.8 202.16 512 201.5C511.48 203.58 511.27 203.26 510 204.5C513.79 204.75 517.05 201.93 520.5 200.55C528.66 197.3 537.76 196.06 546.4 194.66C549.75 194.12 554.14 192.92 557.5 193.58C566.91 195.42 578.41 196.31 586.82 201.72C588.47 202.78 590.79 204.04 592.19 205.4C593.66 206.84 594.82 208.85 596.63 209.98C597.07 210.26 597.78 210.04 598.15 210.42C600.84 213.19 597.89 213.7 602.83 215.5C602.27 218.24 602.53 221.71 604.5 223.69C602.72 226.8 600.86 227.72 600.6 231.5C598.44 231.03 598.97 233.34 598.27 234.82C596.29 239.02 593 243.08 590.28 246.82C584.86 254.26 568.93 267.63 560.8 272.24C550.05 278.33 539.42 285.02 528.21 290.52C494.12 307.24 452.04 318.33 414.5 322.72C402.61 324.11 390.5 325.16 378.5 324.16C372.93 323.69 366.61 324.48 363.01 319.5C363.35 315.81 365.82 313.61 366.62 310.21C366.81 309.38 366.34 308.79 366.53 307.97C366.95 306.14 371.69 299.83 373.19 298.69C374.24 297.88 375.75 298.13 376.65 297.15C377.41 296.33 377.2 295.28 377.84 294.51C378.56 293.65 378.8 295.14 379.14 293.61C379.22 293.24 378.81 292.82 379 292.5C382.18 291.93 382.46 291.43 383 288.5C385.27 288.7 387.82 286.43 388.98 284.32C389.54 283.29 389.39 280.9 391.03 280.6C391.53 280.5 391.99 281.03 392.5 281.04C393.33 279.64 394.17 278.24 395 276.83ZM632.5 193C631 193.83 629.5 194.67 628 195.5C629.17 195.67 630.33 195.83 631.5 196C632.67 195.5 633.83 195 635 194.5C634.17 194 633.33 193.5 632.5 193ZM617 205.5C614.29 205.17 614.17 205.29 614.5 208C615.33 207.17 616.17 206.33 617 205.5ZM615.5 209C614.96 211.86 614.17 212.15 617 212.5C616.5 211.33 616 210.17 615.5 209ZM617.5 226C616.67 226.5 615.83 227 615 227.5C616.63 228.56 616.32 227.96 616 229.5C617.17 230 618.33 230.5 619.5 231C619.82 228.41 618.92 228.17 617.5 226ZM417.5 277.05C423.63 283.52 435.79 282.86 443.87 281.49C449.4 280.56 454.98 280.2 460.48 279.03C471.85 276.6 484.09 271.69 493.73 265.29C499.87 261.21 514.15 252.81 511.76 243.77C509.09 233.65 490.53 234.15 482.49 234.64C466.33 235.64 444.77 242 432.17 252.7C428.91 255.47 426.76 259.47 424.52 263.03C421.71 267.51 418.01 271.68 417.5 277.05ZM448.5 237C446.67 238.17 444.83 239.33 443 240.5C445.86 240.5 448.2 239.92 448.5 237ZM434 246C432.67 247 431.33 248 430 249C424.63 252.58 422.16 258.9 418.47 263.97C415.58 267.92 411.05 270.35 409.5 275C413.33 271.5 417.17 268 421 264.5C422.78 259.16 428.55 254.81 430 249C430.5 249 431 249 431.5 249C432.33 248.5 433.17 248 434 247.5C434 247 434 246.5 434 246C434.83 246 435.67 246 436.5 246C437.33 245.17 438.17 244.33 439 243.5C437.5 244 436 244.5 434.5 245C434.33 245.33 434.17 245.67 434 246ZM370.5 304C369.67 305.17 368.83 306.33 368 307.5C367.99 307.83 367.99 308.17 367.98 308.5C369.32 307.83 370.66 307.17 372 306.5C371.5 305.67 371 304.83 370.5 304ZM518 626.58C517.17 627.05 516.33 627.53 515.5 628C514.33 627.53 513.17 627.05 512 626.58C514 626.58 516 626.58 518 626.58ZM499 630.82C498.67 630.8 498.33 630.77 498 630.74C498.33 630.77 498.67 630.8 499 630.82ZM351.5 676C354.09 675.58 360.69 683.49 362.5 686.02C371.01 697.94 377.12 712.77 378.18 727.5C378.53 732.35 377.71 737.1 375.92 741.55C374.1 746.08 372.04 750.64 368.58 754.17C351.7 771.4 318.15 766.08 298.47 756.87C289.66 752.75 281.85 747.78 273.31 743.31C270.12 741.63 265.76 740.04 266.5 736C266.4 736.07 264.59 737.44 264.57 737.44C263.1 737.57 259.69 733.83 258.58 732.89C253.18 728.3 249.19 722.94 245.35 717.22C242.05 712.31 240.38 706.89 237.91 701.59C231.58 688 228.04 673.53 235.08 659.45C236.74 656.12 238.72 652.56 241.69 650.2C268.81 628.59 306.08 643.17 331.61 659.97C335.99 662.84 350.13 671.85 351.5 676ZM696.83 655C696.83 654.33 696.83 653.67 696.83 653C697.06 652.67 697.28 652.33 697.5 652C697.5 655 697.5 658 697.5 661C697.28 659 697.06 657 696.83 655ZM235.5 674C235.5 676 235.5 678 235.5 680C235.5 678 235.5 676 235.5 674ZM268.81 708.5C270.24 710.55 271.08 713 272.46 714.97C274.27 717.57 277.7 719.51 280.28 721.21C292.38 729.16 308.43 731.42 322.53 728.05C332.01 725.78 343.95 718.6 344.18 707.5C344.38 697.43 335.72 691.84 327.67 687.71C314.1 680.75 296.75 679.24 282.66 686.19C277.79 688.6 271.3 694.2 269.96 699.54C269.18 702.64 269.96 705.76 268.81 708.5ZM333 1015.66C312 1015.67 291 1015.68 270 1015.68C273.8 1013.77 280.14 1014.85 284.5 1014.84C295.5 1014.8 306.5 1014.78 317.5 1014.76C322.05 1014.75 329.12 1013.49 333 1015.66ZM390 1015.36C373 1015.46 356 1015.56 339 1015.66C342.7 1013.63 349.17 1014.8 353.5 1014.8C364.29 1014.83 379.84 1013.47 390 1015.36Z" fill="#deac78" fill-rule="evenodd" stroke="#deac78" stroke-width="0.25" stroke-linejoin="round"/>
<path d="M751.18 665.89C752.66 667.42 753.62 669.78 755.41 671.09C760.01 674.45 769.68 676.56 775.26 678.32C784.68 681.28 794.07 684.41 803.58 686.97C811.72 689.16 821.27 689.83 829 692.72C827.94 694.44 824.79 698.09 822.31 697.73C821.62 697.63 821.16 696.91 820.5 696.7C816.48 702.06 808.79 702.83 802.69 704.7C802.15 704.86 801.87 705.65 801.31 705.65C800.63 705.65 800.17 704.83 799.5 704.7C799.03 705.33 798.87 706.17 798.34 706.76C797.28 707.96 795.91 707.29 794.69 707.7C791.82 708.66 788.61 710.07 785.69 711.19C775.87 714.93 765.75 718.28 755.69 721.19C749.79 722.89 744.75 725.58 738.5 726C736.33 723.83 734.17 721.67 732 719.5C733.15 716.05 733.23 711.57 734.19 707.69C734.73 705.47 736.28 703.49 736.81 701.31C739.78 689.31 743.9 675.73 751.18 665.89ZM978.78 733C978.81 734.67 978.85 736.33 978.88 738C978.57 736.5 978.25 735 977.94 733.5C978.22 733.33 978.5 733.17 978.78 733ZM978.87 777.34C978.84 778.89 978.8 780.45 978.77 782C978.48 781.83 978.2 781.67 977.92 781.5C978.12 780.17 978.32 778.83 978.52 777.5C978.64 777.45 978.75 777.39 978.87 777.34ZM780.08 873.24C765.78 887.66 751.49 902.08 737.2 916.5C741.15 919.35 744.76 915.89 748.17 913.57C753.72 909.81 759.31 906.11 764.91 902.41C767.19 900.91 769.95 897.76 772.63 897.16C777.03 896.18 782.09 900.74 785.29 903.29C792.7 909.17 799.72 915.54 807.19 921.36C810.83 924.19 815.66 927.11 818.2 930.8C817.47 931.03 816.73 931.27 816 931.5C816 932.17 816 932.83 816 933.5C817.83 934.67 819.67 935.83 821.5 937C822.34 936.33 823.17 935.65 824.01 934.98C827.67 937.67 831.34 940.35 835 943.04C832.37 944.61 828.96 941.66 826 940.5C821.63 938.79 816.89 936.28 813.03 933.47C812.28 932.92 811.77 932 810.97 931.53C810.3 931.14 809.31 931.21 808.72 930.78C807.42 929.85 807.44 929.02 806 928.5C807.19 934.03 815.71 935.68 815.5 939C819.19 940.37 822.22 942.12 825.69 943.81C828.03 944.95 830.97 945.05 833.31 946.19C836.14 947.57 839.22 949.74 842.02 947.98C848.73 952.48 855.43 956.99 862.14 961.5C848.65 965.59 834.58 967.31 820.5 967.4C813.93 967.44 807.22 966.38 800.69 966.74C794.95 967.05 789.24 967.88 783.5 968.28C775.59 968.82 755.31 970.42 748.83 967.15C747.22 964.6 745.61 962.05 744 959.5C740.37 960.12 740.61 957.36 738.47 955.03C737.16 953.61 734.67 953.53 733.53 951.97C732.14 950.06 731.56 947.16 730.47 945.03C728.32 940.84 723.74 941.54 721 938.5C718.64 935.88 718.6 931.66 716.47 929.03C715.68 928.06 714.5 928.47 713.72 927.78C712.92 927.08 713.19 926.1 712.47 925.41C712.24 925.18 711.82 925.72 711.53 925.59C711.08 925.4 709.9 924.31 709.5 924C708.22 918.05 708.25 918.27 704.03 914.47C702.26 912.87 702.6 912.06 700 912.5C698.83 909 697.67 905.5 696.5 902C677.83 895 659.17 888 640.5 881C640.15 879.23 640.81 873.85 640.75 873.69C640.45 872.89 639.72 873.24 639.17 873C638.44 871.5 637.72 870 637 868.5C634.97 872.76 635.97 875.55 634 879.5C634.23 880.67 634.94 882.33 634.94 883.5C634.94 885.46 632.96 891.69 633.41 893.47C633.44 893.59 634.58 895.09 635 896.5C633.32 900.02 635.44 902.77 635.63 906.5C635.87 911.6 637.75 922.59 634 926.5C634.33 927.55 634.67 928.59 635 929.64C633.02 929.38 631.03 929.12 629.05 928.86C628.5 923.91 627.95 918.95 627.39 914C627.6 912.5 627.8 911 628 909.5C627.66 909.33 627.32 909.17 626.98 909C626.76 908 626.55 907 626.33 906C626.56 904.17 626.78 902.33 627 900.5C626.66 900.33 626.32 900.17 625.97 900C624.62 894.37 624.29 886.56 625.93 881C626.29 880.83 626.64 880.67 627 880.5C626.94 879 626.89 877.5 626.83 876C628.66 872.85 627.98 869.07 628.81 865.69C628.82 865.67 629.68 864.34 629.68 864.31C629.7 863.66 629 863.15 628.91 862.5C632.72 859.37 630.55 857.45 634 855.5C631.53 850.38 637.44 843.37 640.35 839.06C641.65 837.14 642.58 834.64 645 834.5C645.58 832.15 646.26 831.75 648.17 830C649.44 828.94 650.72 827.89 652 826.83C652.83 826.89 653.67 826.94 654.5 827C656.26 823.65 659.66 821.61 663 820.5C662.33 822.17 661.67 823.83 661 825.5C665.5 822.67 670 819.83 674.5 817C674.35 819.17 674.19 821.33 674.04 823.5C676.34 822.75 680.54 820.95 682.31 818.81C683.07 817.9 684.23 815.29 685.66 815.22C686.9 815.16 686.93 816.16 687.5 817C687.5 815.67 687.5 814.33 687.5 813C689.35 814.44 690.8 814.62 693 815.5C694.35 816.04 694.65 816.99 695.69 817.81C697.98 819.63 700.72 819.97 703.5 820C703.97 820.58 704.9 822.32 705.53 822.59C706.03 822.81 706.67 822.01 707.31 822.25C707.99 822.5 708.1 823.4 708.72 823.78C710.61 824.93 713.33 825.22 715.31 826.19C716.93 826.98 718.08 828.85 719.53 829.59C719.91 829.79 720.47 829.31 721 829.56C723.94 830.95 726.28 834.99 729.5 834C730.96 836.79 735.28 838.96 737.97 840.53C740.14 841.8 741.66 844.46 743.72 845.78C744.4 846.22 745.28 846.03 745.97 846.53C746.6 846.99 746.65 847.89 747.19 848.31C748.06 849 749.02 848.98 749.97 849.53C752.03 850.74 753.47 853.54 755.53 854.59C755.99 854.83 756.41 854.18 757 854.56C757.81 855.09 757.97 856.18 758.69 856.81C759.41 857.45 760.59 857.55 761.31 858.19C763.17 859.83 764.71 862.34 766.72 863.78C767.31 864.21 768.3 864.14 768.97 864.53C770.85 865.63 771.75 867.88 773.19 869.31C774.83 870.96 777.96 872.45 780.08 873.24ZM787.12 881C791.54 882.17 794.36 885.84 798.03 888.47C799.29 889.37 801.12 889.4 802.28 890.22C803.44 891.03 803.72 892.7 805.03 893.47C806.36 894.25 807.98 894.32 809.34 895.16C817.67 900.26 826.06 905.52 835.31 908.19C839.87 909.5 844.08 912.71 848.69 913.81C851.82 914.56 855.14 914.53 858.31 915.19C859.78 915.49 861.22 916.52 862.69 916.81C864.55 917.18 866.45 916.82 868.31 917.19C869.75 917.47 871.24 918.64 872.69 918.81C873.8 918.94 874.5 918.37 875.5 918.38C877.16 918.39 879.05 919.72 880.66 919.78C881.72 919.82 882.44 919.05 883.5 919.06C884.61 919.07 885.43 919.89 886.53 919.97C889.17 920.16 891.88 919.38 894.5 919.38C897.01 919.38 899.84 920 902.5 920C906.49 920 910.66 919.4 914.5 919.38C918.12 919.35 921.86 919.94 925.5 919.94C928.36 919.94 931.41 918.78 934.15 919.91C926.66 930 905.21 944.59 893.5 949.19C865.38 938.1 827.61 927.55 804.6 908.04C800.35 904.43 787.86 893.21 786.24 888.36C785.35 885.7 785.69 883.26 787.12 881ZM768.5 903C768.21 905.36 767.85 905.24 770 905.5C769.5 904.67 769 903.83 768.5 903ZM777.5 911C777.13 914.01 778.12 914.5 781 914.5C780.5 913.67 780 912.83 779.5 912C778.83 911.67 778.17 911.33 777.5 911ZM792 918.5C790.22 918.68 790.16 918.73 789 920.5C790 920.5 791 920.5 792 920.5C792 919.83 792 919.17 792 918.5ZM799.5 929C800.23 925.13 799.05 920.92 795 920.5C796 921.5 797 922.5 798 923.5C794.94 925.58 797.39 926.89 799.5 929ZM805.5 934C805.46 931.37 804.63 930.54 802 930.5C803.17 931.67 804.33 932.83 805.5 934ZM818.2 930.8C819.17 931.48 820.14 932.17 821.1 932.86C820.57 933.24 820.03 933.62 819.5 934C819 933.5 818.5 933 818 932.5C818.07 931.93 818.13 931.37 818.2 930.8ZM811 936.5C809.42 934.92 809.04 934.53 807 934.5C808.58 936.08 808.96 936.47 811 936.5Z" fill="#b7b1ac" fill-rule="evenodd" stroke="#b7b1ac" stroke-width="0.25" stroke-linejoin="round"/>
</svg>
