<svg xmlns="http://www.w3.org/2000/svg" viewBox="0 0 32 32">
  <defs>
    <radialGradient id="top" cx="0.45" cy="0.55" r="0.75">
      <stop offset="0" stop-color="#e2f2ff"/>
      <stop offset="0.35" stop-color="#a9d6ff"/>
      <stop offset="0.7" stop-color="#5aa7fe"/>
      <stop offset="1" stop-color="#4092fa"/>
    </radialGradient>
    <linearGradient id="left" gradientUnits="userSpaceOnUse" x1="7" y1="9" x2="9" y2="31">
      <stop offset="0" stop-color="#86c4ff"/>
      <stop offset="0.4" stop-color="#54a4fe"/>
      <stop offset="1" stop-color="#3c89f2"/>
    </linearGradient>
    <linearGradient id="right" gradientUnits="userSpaceOnUse" x1="21" y1="10" x2="21" y2="31">
      <stop offset="0" stop-color="#4090f4"/>
      <stop offset="1" stop-color="#2e6ed6"/>
    </linearGradient>
    <linearGradient id="drawer" x1="0" y1="0" x2="0" y2="1">
      <stop offset="0" stop-color="#f0faff"/>
      <stop offset="0.3" stop-color="#c0e4ff"/>
      <stop offset="0.7" stop-color="#86c2ff"/>
      <stop offset="1" stop-color="#63aaf8"/>
    </linearGradient>
  </defs>
  <path d="M17.5 1.4 L29.5 9 L29.5 23.8 L13 30.6 L2 23.8 L2 8.2 Z" fill="none" stroke="#1c47ab" stroke-width="2.4" stroke-linejoin="round" opacity="0.3"/>
  <path d="M17.5 1.4 L29.5 9 L29.5 23.8 L13 30.6 L2 23.8 L2 8.2 Z" fill="#1c47ab" stroke="#1c47ab" stroke-width="1.5" stroke-linejoin="round"/>
  <path d="M2 8.2 L13 14.5 L13 30.6 L2 23.8 Z" fill="url(#left)"/>
  <path d="M13 14.5 L29.5 9 L29.5 23.8 L13 30.6 Z" fill="url(#right)"/>
  <path d="M17.5 1.4 L29.5 9 L13 14.5 L2 8.2 Z" fill="url(#top)"/>
  <ellipse cx="6.5" cy="21.5" rx="4.8" ry="6.2" fill="#bcd9ff" opacity="0.22" transform="rotate(-38 6.5 21.5)"/>
  <path d="M14.4 20.4 L28.4 15.7 L28.4 16.8 L14.4 21.5 Z" fill="#2456bd" opacity="0.8"/>
  <path d="M14.4 26.2 L28.4 21.5 L28.4 22.6 L14.4 27.3 Z" fill="#2456bd" opacity="0.8"/>
  <path d="M14.4 15.8 L28.4 11.1 L28.4 15.7 L14.4 20.4 Z" fill="url(#drawer)" stroke="#2a5fc4" stroke-width="0.9"/>
  <path d="M14.4 21.6 L28.4 16.9 L28.4 21.5 L14.4 26.2 Z" fill="url(#drawer)" stroke="#2a5fc4" stroke-width="0.9"/>
  <line x1="15" y1="16.1" x2="27.8" y2="11.8" stroke="#ffffff" stroke-width="0.9" opacity="0.85"/>
  <line x1="15" y1="21.9" x2="27.8" y2="17.6" stroke="#ffffff" stroke-width="0.9" opacity="0.85"/>
  <line x1="20.2" y1="16.1" x2="23" y2="15.2" stroke="#16368c" stroke-width="1.7" stroke-linecap="round"/>
  <line x1="20.2" y1="21.9" x2="23" y2="21" stroke="#16368c" stroke-width="1.7" stroke-linecap="round"/>
  <polyline points="2,8.2 13,14.5 29.5,9" fill="none" stroke="#d7edff" stroke-width="1.3" stroke-linejoin="round" opacity="0.95"/>
  <line x1="13" y1="14.5" x2="13" y2="30.6" stroke="#9ccdff" stroke-width="0.9" opacity="0.5"/>
  <circle cx="13" cy="14.7" r="1.1" fill="#ecf8ff" opacity="0.9"/>
</svg>
