<svg xmlns="http://www.w3.org/2000/svg" viewBox="0 0 16 16">
  <defs>
    <linearGradient id="xbar" x1="0" y1="0" x2="0" y2="1">
      <stop offset="0" stop-color="#ff7b6b"/>
      <stop offset="0.5" stop-color="#e42a24"/>
      <stop offset="1" stop-color="#a01008"/>
    </linearGradient>
  </defs>
  <g stroke="#7a0c06" stroke-width="0.5" stroke-linejoin="round">
    <path d="M3.2 1.6 L8 6.4 L12.8 1.6 L14.4 3.2 L9.6 8 L14.4 12.8 L12.8 14.4 L8 9.6 L3.2 14.4 L1.6 12.8 L6.4 8 L1.6 3.2 Z" fill="url(#xbar)"/>
  </g>
  <path d="M3.4 2.4 L7.4 6.4 L6.6 7.2 L2.6 3.2 Z" fill="#ffffff" opacity="0.35"/>
  <path d="M12.6 2.4 L13.6 3.2 L9.6 7.2 L8.9 6.5 Z" fill="#ffffff" opacity="0.35"/>
  <g>
    <ellipse cx="6.1" cy="8.5" rx="1.85" ry="1.45" fill="#eaf7fb" stroke="#7a0c06" stroke-width="0.35"/>
    <ellipse cx="9.9" cy="8.5" rx="1.85" ry="1.45" fill="#eaf7fb" stroke="#7a0c06" stroke-width="0.35"/>
    <circle cx="6.4" cy="8.65" r="0.78" fill="#d01810"/>
    <circle cx="9.6" cy="8.65" r="0.78" fill="#d01810"/>
    <path d="M4.1 7.7 Q6.1 5.4 8.1 7.1" fill="none" stroke="#8f0d05" stroke-width="1.05" stroke-linecap="round"/>
    <path d="M7.9 7.1 Q9.9 5.4 11.9 7.7" fill="none" stroke="#8f0d05" stroke-width="1.05" stroke-linecap="round"/>
  </g>
</svg>
