<svg xmlns="http://www.w3.org/2000/svg" viewBox="0 0 16 16">
  <defs>
    <radialGradient id="board" cx="0.68" cy="0.42" r="0.75">
      <stop offset="0" stop-color="#fff5b0"/>
      <stop offset="0.4" stop-color="#ffe288"/>
      <stop offset="0.75" stop-color="#ffcd5c"/>
      <stop offset="1" stop-color="#edb043"/>
    </radialGradient>
  </defs>
  <path d="M8.2 1.7 C11.4 1.7 13.9 3.2 14.5 5.4 C14.9 7.5 13.9 9.3 12.0 10.3 C10.3 11.2 8.6 11.3 7.6 12.6 C7.1 13.4 7.0 14.3 6.2 14.9 C5.5 15.4 4.5 15.5 3.8 15.0 C3.0 14.4 2.4 13.3 1.9 12.3 C1.6 11.6 1.4 10.7 1.3 9.8 C1.1 8.2 1.4 6.6 2.1 5.3 C2.9 3.9 4.3 2.7 5.8 2.1 C6.6 1.8 7.4 1.7 8.2 1.7 Z M5.92 12.55 A0.95 1.5 -15 1 0 4.08 13.05 A0.95 1.5 -15 1 0 5.92 12.55 Z" fill="url(#board)" fill-rule="evenodd" stroke="#7b7b7b" stroke-width="0.9" stroke-linejoin="round"/>
  <circle cx="7.3" cy="3.9" r="1.45" fill="#1f9e10"/>
  <circle cx="6.95" cy="3.55" r="0.68" fill="#a8d968" opacity="0.9"/>
  <circle cx="11.2" cy="4.6" r="1.45" fill="#3f6ff9"/>
  <circle cx="10.85" cy="4.25" r="0.68" fill="#a4bbfc" opacity="0.9"/>
  <circle cx="3.7" cy="6.3" r="1.45" fill="#f21000"/>
  <circle cx="3.35" cy="5.95" r="0.68" fill="#ff8a66" opacity="0.9"/>
  <circle cx="3.4" cy="9.9" r="1.45" fill="#f9971d"/>
  <circle cx="3.05" cy="9.55" r="0.68" fill="#ffd070" opacity="0.9"/>
</svg>
