<svg xmlns="http://www.w3.org/2000/svg" viewBox="0 0 16 16">
  <defs>
    <radialGradient id="ring" cx="0.38" cy="0.32" r="0.95">
      <stop offset="0" stop-color="#dcdeee"/>
      <stop offset="0.55" stop-color="#9598b8"/>
      <stop offset="1" stop-color="#585a82"/>
    </radialGradient>
  </defs>
  <path fill-rule="evenodd" fill="url(#ring)" stroke="#383a60" stroke-width="0.45" stroke-linejoin="round"
    d="M3.97 3.2 L3.94 1.39 L5.8 0.63 L7.05 1.93 A5.7 5.7 0 0 1 8.15 1.93 L9.4 0.63 L11.26 1.39 L11.23 3.2
       A5.7 5.7 0 0 1 12.0 3.98 L13.81 3.94 L14.57 5.8 L13.27 7.05 A5.7 5.7 0 0 1 13.27 8.15
       L14.57 9.4 L13.81 11.26 L12.0 11.22 A5.7 5.7 0 0 1 11.23 12.0 L11.26 13.81 L9.4 14.57 L8.15 13.27
       A5.7 5.7 0 0 1 7.05 13.27 L5.8 14.57 L3.94 13.81 L3.97 12.0 A5.7 5.7 0 0 1 3.2 11.22
       L1.39 11.26 L0.63 9.4 L1.93 8.15 A5.7 5.7 0 0 1 1.93 7.05 L0.63 5.8 L1.39 3.94 L3.2 3.97
       A5.7 5.7 0 0 1 3.97 3.2 Z
       M10.35 7.4 a2.95 2.95 0 1 0 -5.9 0 a2.95 2.95 0 1 0 5.9 0 Z"/>
  <path d="M6.18 2.86 A4.7 4.7 0 0 0 2.98 5.79" fill="none" stroke="#ffffff" stroke-width="1.3" opacity="0.5" stroke-linecap="round"/>
</svg>
