<svg xmlns="http://www.w3.org/2000/svg" viewBox="0 0 16 16">
  <defs>
    <linearGradient id="arr_ed2k_high" x1="0" y1="0" x2="0.55" y2="1">
      <stop offset="0" stop-color="#d0ffc6"/>
      <stop offset="0.45" stop-color="#4dff48"/>
      <stop offset="1" stop-color="#20ce34"/>
    </linearGradient>
  </defs>
  <path d="M 5.182 9.819 L 6.742 11.328 C 6.815 11.381 6.902 11.417 6.981 11.404 C 7.175 11.365 7.322 11.185 7.318 11.027 L 7.438 4.68 L 7.424 4.636 C 7.41 4.467 7.232 4.394 7.066 4.449 L 0.686 6.591 C 0.589 6.615 0.5 6.679 0.443 6.775 C 0.352 6.939 0.413 7.129 0.539 7.188 L 2.344 7.884 C 2.092 8.279 1.839 8.74 1.639 9.226 C 1.113 10.489 0.803 12.046 0.977 13.511 C 1.148 14.978 1.263 15.181 1.506 15.506 C 1.627 15.668 1.952 15.628 2.059 15.325 C 2.162 15.022 2.214 14.869 2.19 14.477 C 2.134 13.687 2.518 11.949 3.303 11.021 C 3.797 10.455 4.373 10.133 5.182 9.819 Z" fill="url(#arr_ed2k_high)" stroke="#0c3f1c" stroke-width="0.6" stroke-linejoin="round"/>
</svg>
