<svg xmlns="http://www.w3.org/2000/svg" viewBox="0 0 16 16">
  <defs>
    <radialGradient id="sea" cx="0.35" cy="0.3" r="0.95">
      <stop offset="0" stop-color="#2a7fd4"/>
      <stop offset="0.55" stop-color="#0a4c96"/>
      <stop offset="1" stop-color="#00305e"/>
    </radialGradient>
  </defs>
  <circle cx="8" cy="8" r="7.3" fill="url(#sea)" stroke="#00182d" stroke-width="0.8"/>
  <path d="M3.1 3.6 C4.3 2.2 6.4 1.7 7.9 2.3 C7.3 3.5 7.7 4.5 6.6 5.3 C5.4 6.2 3.9 5.7 3.3 4.7 Z" fill="#3fae4a"/>
  <path d="M10.4 2.6 C11.7 2.2 13.1 3.1 13.8 4.4 C13.2 5.3 11.9 5.7 10.8 5.2 C10.3 4.4 10.0 3.3 10.4 2.6 Z" fill="#3fae4a"/>
  <path d="M3.9 9.3 C5.4 8.7 7.3 8.9 8.3 10.0 C7.9 11.5 6.7 12.7 5.3 12.5 C4.3 11.7 3.6 10.4 3.9 9.3 Z" fill="#3fae4a"/>
  <path d="M10.7 9.7 C12.0 9.3 13.4 9.9 13.6 11.0 C12.8 12.1 11.3 12.3 10.5 11.4 Z" fill="#2f8f3f"/>
  <ellipse cx="5.6" cy="3.4" rx="3.2" ry="1.7" fill="#ffffff" opacity="0.28"/>
  <!-- eD2k arrow (bottom-left) -->
  <path d="M 5.6 8.9 Q 3.1 10.8 2.1 14.1" fill="none" stroke="#7a0d0d" stroke-width="3.0" stroke-linecap="round"/>
  <path d="M 5.6 8.9 Q 3.1 10.8 2.1 14.1" fill="none" stroke="#e51a1a" stroke-width="2.0" stroke-linecap="round"/>
  <path d="M 8.1 6.7 L 6.9 9.7 L 4.5 7.5 Z" fill="#e51a1a" stroke="#7a0d0d" stroke-width="0.5" stroke-linejoin="round"/>
  <path d="M 5.1 9.4 Q 3.4 10.9 2.6 13.1" fill="none" stroke="#ffffff" stroke-width="0.7" opacity="0.75" stroke-linecap="round"/>
  <!-- Kad arrow (top-right) -->
  <path d="M 10.4 7.1 Q 12.9 5.2 13.9 1.9" fill="none" stroke="#7a0d0d" stroke-width="3.0" stroke-linecap="round"/>
  <path d="M 10.4 7.1 Q 12.9 5.2 13.9 1.9" fill="none" stroke="#e51a1a" stroke-width="2.0" stroke-linecap="round"/>
  <path d="M 7.9 9.3 L 9.1 6.3 L 11.5 8.5 Z" fill="#e51a1a" stroke="#7a0d0d" stroke-width="0.5" stroke-linejoin="round"/>
  <path d="M 10.9 6.6 Q 12.6 5.1 13.4 2.9" fill="none" stroke="#ffffff" stroke-width="0.7" opacity="0.75" stroke-linecap="round"/>
</svg>
