<svg xmlns="http://www.w3.org/2000/svg" viewBox="0 0 16 16">
  <defs>
    <radialGradient id="sea" cx="0.35" cy="0.3" r="0.95">
      <stop offset="0" stop-color="#2a7fd4"/>
      <stop offset="0.55" stop-color="#0a4c96"/>
      <stop offset="1" stop-color="#00305e"/>
    </radialGradient>
  </defs>
  <circle cx="8" cy="8" r="7.3" fill="url(#sea)" stroke="#00182d" stroke-width="0.8"/>
  <!-- Africa (centred, wide north tapering to a southern tip) -->
  <path d="M5.7 5.6 C6.6 4.9 8.6 4.9 10.2 5.4 C10.9 6.2 10.6 7.1 10.0 7.8
           C9.7 9.0 9.4 10.4 8.7 11.6 C8.3 12.4 7.9 12.7 7.4 12.2
           C7.0 10.8 6.6 9.6 5.9 8.6 C5.2 7.7 5.0 6.4 5.7 5.6 Z" fill="#3fae4a"/>
  <!-- Europe (upper-left) -->
  <path d="M4.2 3.9 C5.2 3.5 6.6 3.8 6.9 4.7 C6.6 5.5 5.4 5.7 4.6 5.3 C4.0 5.0 3.7 4.3 4.2 3.9 Z" fill="#4fbb57"/>
  <!-- Arabia hint (right of Africa) -->
  <path d="M10.7 6.2 C11.6 6.0 12.4 6.7 12.1 7.5 C11.5 8.0 10.6 7.6 10.5 6.9 Z" fill="#2f8f3f"/>
  <ellipse cx="6.7" cy="4.2" rx="2.5" ry="1.2" fill="#ffffff" opacity="0.26"/>
  <!-- eD2k arrow (bottom-left) -->
  <path d="M 7.9 8.0 L 4.5 8.6 L 5.2 10.3 Q 3.7 11.6 2.7 13.4 Q 4.2 14.4 5.4 12.7 Q 6.1 11.4 7.1 11.2 L 7.3 12.0 Z" fill="#e51a1a" stroke="#7a0d0d" stroke-width="0.6" stroke-linejoin="round"/>
  <path d="M 5.2 10.9 Q 4.0 12.1 3.3 13.3" fill="none" stroke="#ffffff" stroke-width="0.7" opacity="0.7" stroke-linecap="round"/>
  <!-- Kad arrow (top-right) -->
  <path d="M 8.1 8.0 L 11.5 7.4 L 10.8 5.7 Q 12.3 4.4 13.3 2.6 Q 11.8 1.6 10.6 3.3 Q 9.9 4.6 8.9 4.8 L 8.7 4.0 Z" fill="#e51a1a" stroke="#7a0d0d" stroke-width="0.6" stroke-linejoin="round"/>
  <path d="M 10.8 5.1 Q 12.0 3.9 12.7 2.7" fill="none" stroke="#ffffff" stroke-width="0.7" opacity="0.7" stroke-linecap="round"/>
</svg>
