<svg xmlns="http://www.w3.org/2000/svg" viewBox="0 0 16 16">
  <defs>
    <linearGradient id="arr_kad_off" x1="0" y1="0" x2="0.55" y2="1">
      <stop offset="0" stop-color="#ffc9c9"/>
      <stop offset="0.45" stop-color="#f22525"/>
      <stop offset="1" stop-color="#a81111"/>
    </linearGradient>
  </defs>
  <path d="M 11.33 6.737 L 10.547 5.234 C 10.506 5.177 10.45 5.127 10.388 5.119 C 10.237 5.101 10.085 5.199 10.05 5.317 L 8.435 10.012 L 8.435 10.048 C 8.406 10.177 8.518 10.275 8.654 10.274 L 13.857 10.236 C 13.935 10.24 14.015 10.215 14.08 10.157 C 14.188 10.056 14.188 9.902 14.109 9.827 L 12.951 8.868 C 13.231 8.636 13.527 8.355 13.79 8.041 C 14.481 7.23 15.083 6.148 15.308 5.014 C 15.534 3.88 15.379 2.688 14.509 1.679 C 14.195 1.31 13.775 0.951 13.256 0.641 C 13.201 0.591 13.058 0.582 12.964 0.641 C 12.841 0.71 12.774 0.856 12.841 0.964 C 13.664 2.422 13.612 3.627 13.169 4.598 C 12.768 5.457 12.036 6.186 11.33 6.737 Z" fill="url(#arr_kad_off)" stroke="#7a0d0d" stroke-width="0.6" stroke-linejoin="round"/>
</svg>
