<svg xmlns="http://www.w3.org/2000/svg" viewBox="0 0 16 16">
  <path d="M 4.57 11.23 L 3.24 10.96 C 3.19 10.95 3.15 10.92 3.12 10.87 C 3.07 10.79 3.1 10.68 3.19 10.63 L 6.36 8.88 L 6.39 8.86 C 6.48 8.83 6.58 8.88 6.62 8.97 L 7.81 12.32 C 7.82 12.36 7.82 12.42 7.79 12.46 C 7.74 12.55 7.63 12.58 7.55 12.53 L 6.56 11.95 C 6.45 12.16 6.3 12.39 6.13 12.61 C 5.67 13.18 4.99 13.74 4.19 14.06 C 3.38 14.38 2.44 14.45 1.47 14.05 C 1.12 13.91 0.76 13.7 0.41 13.42 C 0.35 13.38 0.32 13.3 0.33 13.23 C 0.36 13.13 0.45 13.07 0.55 13.09 C 1.84 13.4 2.74 13.18 3.37 12.74 C 3.94 12.35 4.31 11.77 4.57 11.23 Z" fill="#e51a1a" stroke="#7a0d0d" stroke-width="0.45" stroke-linejoin="round"/>
</svg>
