<svg xmlns="http://www.w3.org/2000/svg" viewBox="0 0 16 16">
  <defs>
    <radialGradient id="sea" cx="0.35" cy="0.3" r="0.95">
      <stop offset="0" stop-color="#2a7fd4"/>
      <stop offset="0.55" stop-color="#0a4c96"/>
      <stop offset="1" stop-color="#00305e"/>
    </radialGradient>
  </defs>
  <!-- earth -->
  <circle cx="8" cy="8" r="7.3" fill="url(#sea)" stroke="#00182d" stroke-width="0.8"/>
  <!-- continents -->
  <path d="M3.1 3.6 C4.3 2.2 6.4 1.7 7.9 2.3 C7.3 3.5 7.7 4.5 6.6 5.3 C5.4 6.2 3.9 5.7 3.3 4.7 Z" fill="#3fae4a"/>
  <path d="M10.4 2.6 C11.7 2.2 13.1 3.1 13.8 4.4 C13.2 5.3 11.9 5.7 10.8 5.2 C10.3 4.4 10.0 3.3 10.4 2.6 Z" fill="#3fae4a"/>
  <path d="M3.9 9.3 C5.4 8.7 7.3 8.9 8.3 10.0 C7.9 11.5 6.7 12.7 5.3 12.5 C4.3 11.7 3.6 10.4 3.9 9.3 Z" fill="#3fae4a"/>
  <path d="M10.7 9.7 C12.0 9.3 13.4 9.9 13.6 11.0 C12.8 12.1 11.3 12.3 10.5 11.4 Z" fill="#2f8f3f"/>
  <!-- gloss -->
  <ellipse cx="5.6" cy="3.4" rx="3.2" ry="1.7" fill="#ffffff" opacity="0.28"/>
  <!-- eD2k arrow (bottom-left), disconnected red -->
  <path d="M1.0 15.0 L1.6 10.2 L2.7 11.4 L5.6 8.4 L7.6 10.4 L4.6 13.3 L5.8 14.4 Z" fill="#e51a1a" stroke="#7a0d0d" stroke-width="0.5" stroke-linejoin="round"/>
  <path d="M1.9 13.9 L2.3 11.3" fill="none" stroke="#ffffff" stroke-width="0.7" opacity="0.75" stroke-linecap="round"/>
  <!-- Kad arrow (top-right), disconnected red -->
  <path d="M15.0 1.0 L14.4 5.8 L13.3 4.6 L10.4 7.6 L8.4 5.6 L11.4 2.7 L10.2 1.6 Z" fill="#e51a1a" stroke="#7a0d0d" stroke-width="0.5" stroke-linejoin="round"/>
  <path d="M14.1 2.1 L13.7 4.7" fill="none" stroke="#ffffff" stroke-width="0.7" opacity="0.75" stroke-linecap="round"/>
</svg>
