<svg xmlns="http://www.w3.org/2000/svg" viewBox="0 0 16 16">
  <defs>
    <linearGradient id="uB" x1="0.2" y1="0" x2="0.8" y2="1">
      <stop offset="0" stop-color="#6bce7d"/>
      <stop offset="0.55" stop-color="#37b048"/>
      <stop offset="1" stop-color="#17803a"/>
    </linearGradient>
    <radialGradient id="uH" cx="0.42" cy="0.36" r="0.92">
      <stop offset="0" stop-color="#c2efc9"/>
      <stop offset="0.5" stop-color="#46b854"/>
      <stop offset="1" stop-color="#178036"/>
    </radialGradient>
  </defs>
  <!-- both arms: rounded, angled slightly outward -->
  <path d="M6.2 6.6 C4.6 7.4 3.6 9.4 3.1 11.8 C2.9 12.9 3.9 13.3 4.5 12.4 C5.1 10.4 5.9 8.7 7.0 7.7 Z"
        fill="url(#uB)" stroke="#0f5a24" stroke-width="0.55" stroke-linejoin="round"/>
  <path d="M9.8 6.6 C11.4 7.4 12.4 9.4 12.9 11.8 C13.1 12.9 12.1 13.3 11.5 12.4 C10.9 10.4 10.1 8.7 9.0 7.7 Z"
        fill="url(#uB)" stroke="#0f5a24" stroke-width="0.55" stroke-linejoin="round"/>
  <!-- torso, facing front -->
  <path d="M8 6.0 C10.0 6.0 11.4 7.4 11.4 9.6 L11.2 15.6 L4.8 15.6 L4.6 9.6 C4.6 7.4 6.0 6.0 8 6.0 Z"
        fill="url(#uB)" stroke="#0f5a24" stroke-width="0.6" stroke-linejoin="round"/>
  <!-- head, facing front -->
  <circle cx="8" cy="3.3" r="2.9" fill="url(#uH)" stroke="#0f5a24" stroke-width="0.6"/>
  <!-- gloss -->
  <ellipse cx="6.9" cy="2.4" rx="1.15" ry="1.35" fill="#ffffff" opacity="0.55"/>
  <rect x="7.3" y="7.6" width="1.4" height="6.4" rx="0.7" fill="#ffffff" opacity="0.26"/>
</svg>
