<svg xmlns="http://www.w3.org/2000/svg" viewBox="0 0 16 16">
  <defs>
    <linearGradient id="arr_kad_off" x1="0" y1="0" x2="0.55" y2="1">
      <stop offset="0" stop-color="#ffc9c9"/>
      <stop offset="0.45" stop-color="#f22525"/>
      <stop offset="1" stop-color="#a81111"/>
    </linearGradient>
  </defs>
  <path d="M 11.43 4.77 L 12.76 5.04 C 12.81 5.05 12.85 5.08 12.88 5.13 C 12.93 5.21 12.9 5.32 12.81 5.37 L 9.64 7.12 L 9.61 7.14 C 9.52 7.17 9.42 7.12 9.38 7.03 L 8.19 3.68 C 8.18 3.64 8.18 3.58 8.21 3.54 C 8.26 3.45 8.37 3.42 8.45 3.47 L 9.44 4.05 C 9.55 3.84 9.7 3.61 9.87 3.39 C 10.33 2.82 11.01 2.26 11.81 1.94 C 12.62 1.62 13.56 1.55 14.53 1.95 C 14.88 2.09 15.24 2.3 15.59 2.58 C 15.65 2.62 15.68 2.7 15.67 2.77 C 15.64 2.87 15.55 2.93 15.45 2.91 C 14.16 2.6 13.26 2.82 12.63 3.26 C 12.06 3.65 11.69 4.23 11.43 4.77 Z" fill="url(#arr_kad_off)" stroke="#7a0d0d" stroke-width="0.4" stroke-linejoin="round"/>
</svg>
