<svg xmlns="http://www.w3.org/2000/svg" viewBox="0 0 16 16">
  <defs>
    <radialGradient id="sea" cx="0.35" cy="0.3" r="0.95">
      <stop offset="0" stop-color="#8fd0ff"/>
      <stop offset="0.5" stop-color="#3e8ce0"/>
      <stop offset="1" stop-color="#1156a0"/>
    </radialGradient>
    <linearGradient id="arr_base" x1="0" y1="0" x2="0.55" y2="1">
      <stop offset="0" stop-color="#ffc9c9"/>
      <stop offset="0.45" stop-color="#f22525"/>
      <stop offset="1" stop-color="#a81111"/>
    </linearGradient>
  </defs>
  <circle cx="8" cy="8" r="7.3" fill="url(#sea)" stroke="#0d3b6e" stroke-width="0.8"/>
  <path d="M 7.933 6.834 C 8.833 6.134 10.833 6.134 12.433 6.634 C 13.133 7.434 12.833 8.334 12.233 9.034 C 11.933 10.234 11.633 11.634 10.933 12.834 C 10.533 13.634 10.133 13.934 9.633 13.434 C 9.233 12.034 8.833 10.834 8.133 9.834 C 7.433 8.934 7.233 7.634 7.933 6.834 Z" fill="#58cc63"/>
  <path d="M 5.549 4.208 C 6.83 2.986 9.148 2.512 10.155 3.614 C 10.185 4.958 8.477 6.023 7.012 5.964 C 5.914 5.92 5.029 5.107 5.549 4.208 Z" fill="#6ad973"/>
  <path d="M 10.7 6.2 C 11.6 6.0 12.4 6.7 12.1 7.5 C 11.5 8.0 10.6 7.6 10.5 6.9 Z" fill="#46b153"/>
  <ellipse cx="6.782" cy="2.708" rx="2.5" ry="1.2" fill="#ffffff" opacity="0.38"/>
  <!-- eD2k (SW) -->
  <path d="M 4.696 10.224 L 5.364 11.516 C 5.4 11.565 5.447 11.608 5.5 11.615 C 5.629 11.63 5.759 11.546 5.789 11.445 L 7.169 7.408 L 7.169 7.378 C 7.194 7.267 7.099 7.182 6.982 7.183 L 2.535 7.216 C 2.468 7.213 2.4 7.234 2.344 7.284 C 2.252 7.37 2.252 7.503 2.319 7.567 L 3.309 8.392 C 3.071 8.592 2.817 8.833 2.592 9.103 C 2.001 9.8 1.487 10.73 1.294 11.705 C 1.102 12.68 1.234 13.705 1.977 14.572 C 2.246 14.889 2.605 15.198 3.048 15.465 C 3.095 15.508 3.218 15.515 3.298 15.465 C 3.403 15.405 3.46 15.28 3.403 15.187 C 2.7 13.933 2.744 12.898 3.123 12.063 C 3.466 11.324 4.091 10.697 4.696 10.224 Z" fill="url(#arr_base)" stroke="#7a0d0d" stroke-width="0.4" stroke-linejoin="round"/>
  <!-- Kad (NE) -->
  <path d="M 11.304 5.776 L 10.636 4.484 C 10.6 4.435 10.553 4.392 10.5 4.385 C 10.371 4.37 10.241 4.454 10.211 4.555 L 8.831 8.592 L 8.831 8.622 C 8.806 8.733 8.901 8.818 9.018 8.817 L 13.465 8.784 C 13.532 8.787 13.6 8.766 13.656 8.716 C 13.748 8.63 13.748 8.497 13.681 8.433 L 12.691 7.608 C 12.929 7.408 13.183 7.167 13.408 6.897 C 13.999 6.2 14.513 5.27 14.706 4.295 C 14.898 3.32 14.766 2.295 14.023 1.428 C 13.754 1.111 13.395 0.802 12.952 0.535 C 12.905 0.492 12.782 0.485 12.702 0.535 C 12.597 0.595 12.54 0.72 12.597 0.813 C 13.3 2.067 13.256 3.102 12.877 3.937 C 12.534 4.676 11.909 5.303 11.304 5.776 Z" fill="url(#arr_base)" stroke="#7a0d0d" stroke-width="0.4" stroke-linejoin="round"/>
</svg>
