<svg xmlns="http://www.w3.org/2000/svg" viewBox="0 0 16 16">
  <defs>
    <linearGradient id="arr_kad_firewalled" x1="0" y1="0" x2="0.55" y2="1">
      <stop offset="0" stop-color="#fff6c8"/>
      <stop offset="0.45" stop-color="#ffe63a"/>
      <stop offset="1" stop-color="#dcc714"/>
    </linearGradient>
  </defs>
  <path d="M 10.818 6.181 L 9.258 4.672 C 9.185 4.619 9.098 4.583 9.019 4.596 C 8.825 4.635 8.678 4.815 8.682 4.973 L 8.562 11.32 L 8.576 11.364 C 8.59 11.533 8.768 11.606 8.934 11.551 L 15.314 9.409 C 15.411 9.385 15.5 9.321 15.557 9.225 C 15.648 9.061 15.587 8.871 15.461 8.812 L 13.656 8.116 C 13.908 7.721 14.161 7.26 14.361 6.774 C 14.887 5.511 15.197 3.954 15.023 2.489 C 14.852 1.022 14.737 0.819 14.494 0.494 C 14.373 0.332 14.048 0.372 13.941 0.675 C 13.838 0.978 13.786 1.131 13.81 1.523 C 13.866 2.313 13.482 4.051 12.697 4.979 C 12.203 5.545 11.627 5.867 10.818 6.181 Z" fill="url(#arr_kad_firewalled)" stroke="#4a4605" stroke-width="0.6" stroke-linejoin="round"/>
</svg>
