<svg xmlns="http://www.w3.org/2000/svg" viewBox="0 0 16 16">
  <defs>
    <radialGradient id="sea" cx="0.35" cy="0.3" r="0.95">
      <stop offset="0" stop-color="#8fd0ff"/>
      <stop offset="0.5" stop-color="#3e8ce0"/>
      <stop offset="1" stop-color="#1156a0"/>
    </radialGradient>
    <linearGradient id="arr_base" x1="0" y1="0" x2="0.55" y2="1">
      <stop offset="0" stop-color="#ffc9c9"/>
      <stop offset="0.45" stop-color="#f22525"/>
      <stop offset="1" stop-color="#a81111"/>
    </linearGradient>
  </defs>
  <circle cx="8" cy="8" r="7.3" fill="url(#sea)" stroke="#1a5da8" stroke-width="0.8"/>
  <path d="M 9.483 4.133 L 9.432 4.479 L 9.711 4.421 L 9.915 4.22 L 9.737 4.047 C 9.677 3.888 9.608 3.74 9.533 3.587 L 9.381 3.587 L 9.381 3.759 L 9.483 3.875 L 9.483 4.133 M 5.72 9.601 L 5.517 9.198 L 5.135 9.112 L 4.932 8.565 L 4.424 8.622 L 3.992 8.306 L 3.534 8.709 L 3.534 8.772 C 3.395 8.732 3.225 8.727 3.102 8.651 L 3.0 8.364 L 3.0 8.047 L 2.695 8.076 C 2.72 7.874 2.746 7.673 2.771 7.471 L 2.593 7.471 L 2.415 7.702 L 2.237 7.788 L 1.983 7.644 L 1.958 7.328 L 2.008 6.982 L 2.39 6.695 L 2.695 6.695 L 2.746 6.522 L 3.127 6.608 L 3.407 6.954 L 3.458 6.378 L 3.941 5.975 L 4.119 5.544 L 4.474 5.4 L 4.678 5.112 L 5.135 5.025 L 5.364 4.68 L 4.678 4.68 L 5.11 4.479 L 5.415 4.479 L 5.847 4.335 L 5.898 4.163 L 5.745 4.019 L 5.568 3.961 L 5.618 3.788 L 5.491 3.53 L 5.186 3.644 L 5.237 3.414 L 4.881 3.213 L 4.602 3.702 L 4.627 3.874 L 4.347 3.99 L 4.169 4.364 L 4.093 4.019 L 3.61 3.817 L 3.534 3.558 L 4.169 3.184 L 4.449 2.925 L 4.474 2.609 L 4.322 2.522 L 4.119 2.493 L 3.992 2.81 C 3.992 2.81 3.779 2.852 3.724 2.865 C 3.026 3.508 1.616 4.897 1.288 7.519 C 1.301 7.579 1.526 7.932 1.526 7.932 L 2.059 8.248 L 2.593 8.392 L 2.822 8.68 L 3.178 8.939 L 3.381 8.91 L 3.534 8.979 L 3.534 9.025 L 3.33 9.572 L 3.178 9.802 L 3.229 9.918 L 3.102 10.349 L 3.559 11.183 L 4.017 11.586 L 4.22 11.874 L 4.195 12.478 L 4.347 12.823 L 4.195 13.485 C 4.195 13.485 4.183 13.481 4.202 13.547 C 4.222 13.614 5.017 14.055 5.067 14.017 C 5.118 13.979 5.161 13.946 5.161 13.946 L 5.11 13.802 L 5.313 13.601 L 5.39 13.399 L 5.72 13.284 L 5.974 12.651 L 5.898 12.478 L 6.076 12.22 L 6.457 12.133 L 6.661 11.672 L 6.61 11.097 L 6.915 10.666 L 6.966 10.234 C 6.548 10.027 6.134 9.814 5.72 9.601 M 5.161 3.069 L 5.415 3.241 L 5.619 3.241 L 5.619 3.04 L 5.364 2.925 L 5.161 3.069" fill="#58cc63"/>
  <path d="M 14.709 6.97 C 14.709 7.062 14.709 6.97 14.709 6.97 L 14.518 7.186 C 14.401 7.048 14.27 6.932 14.137 6.811 L 13.845 6.854 L 13.578 6.552 L 13.578 6.926 L 13.806 7.099 L 13.959 7.272 L 14.162 7.042 C 14.213 7.138 14.264 7.234 14.315 7.329 L 14.315 7.617 L 14.086 7.876 L 13.666 8.164 L 13.349 8.481 L 13.145 8.25 L 13.247 7.991 L 13.044 7.761 L 12.7 7.027 L 12.408 6.697 L 12.332 6.783 L 12.446 7.2 L 12.662 7.445 C 12.785 7.8 12.907 8.141 13.069 8.481 C 13.32 8.481 13.557 8.454 13.806 8.423 L 13.806 8.624 L 13.501 9.372 L 13.222 9.689 L 12.993 10.178 L 12.993 10.984 L 13.069 11.301 L 12.942 11.444 L 12.662 11.617 L 12.37 11.861 L 12.612 12.135 L 12.281 12.423 L 12.345 12.609 L 11.849 13.171 L 11.518 13.171 L 11.239 13.344 L 11.06 13.344 L 11.06 13.114 L 10.985 12.652 C 10.886 12.363 10.784 12.077 10.68 11.79 C 10.68 11.578 10.692 11.368 10.705 11.157 L 10.832 10.869 L 10.654 10.523 L 10.667 10.049 L 10.425 9.775 L 10.546 9.38 L 10.349 9.157 L 10.006 9.157 L 9.891 9.027 L 9.548 9.243 L 9.408 9.085 L 9.091 9.358 C 8.875 9.113 8.658 8.869 8.442 8.624 L 8.188 8.02 L 8.417 7.675 L 8.29 7.531 L 8.569 6.869 C 8.799 6.583 9.039 6.309 9.281 6.034 L 9.713 5.919 L 10.196 5.862 L 10.527 5.948 L 10.997 6.423 L 11.163 6.236 L 11.391 6.207 L 11.823 6.351 L 12.154 6.351 L 12.383 6.149 L 12.485 6.006 L 12.255 5.862 L 11.874 5.833 C 11.768 5.686 11.67 5.532 11.544 5.402 L 11.417 5.459 L 11.366 5.833 L 11.137 5.574 L 11.086 5.286 L 10.832 5.085 L 10.73 5.085 L 10.985 5.373 L 10.883 5.632 L 10.68 5.689 L 10.807 5.43 L 10.577 5.316 L 10.375 5.085 L 9.993 5.171 L 9.942 5.286 L 9.713 5.43 L 9.586 5.747 L 9.269 5.905 L 9.129 5.747 L 8.976 5.747 L 8.976 5.229 L 9.307 5.056 L 9.561 5.056 L 9.51 4.855 L 9.307 4.653 L 9.65 4.581 L 9.84 4.366 L 9.993 4.107 L 10.273 4.107 L 10.196 3.905 L 10.375 3.79 L 10.375 4.02 L 10.756 4.107 L 11.137 3.79 L 11.162 3.646 L 11.493 3.416 C 11.373 3.431 11.254 3.442 11.137 3.474 L 11.137 3.215 L 11.264 2.927 L 11.137 2.927 L 10.858 3.186 L 10.781 3.33 L 10.858 3.531 L 10.73 3.876 L 10.527 3.761 L 10.349 3.56 L 10.069 3.761 L 9.968 3.301 L 10.45 2.984 L 10.45 2.812 L 10.756 2.61 L 11.239 2.495 L 11.569 2.61 L 12.179 2.725 L 12.027 2.898 L 11.696 2.898 L 12.027 3.243 L 12.281 2.956 L 12.358 2.829 C 12.358 2.829 13.333 3.703 13.89 4.658 C 14.447 5.614 14.709 6.741 14.709 6.97 Z M 8.413 2.956 L 8.388 3.128 L 8.566 3.243 L 8.871 3.042 L 8.718 2.869 L 8.515 2.984 L 8.413 2.956 M 8.693 1.776 L 8.032 1.517 L 7.269 1.603 L 6.329 1.862 L 6.151 2.035 L 6.735 2.438 L 6.735 2.668 L 6.506 2.898 L 6.812 3.503 L 7.015 3.387 L 7.269 2.984 C 7.662 2.863 8.014 2.725 8.388 2.553 L 8.693 1.776 M 9.379 4.193 L 9.278 3.934 L 9.099 3.992 L 9.151 4.308 L 9.379 4.193" fill="#58cc63"/>
  <path d="M 4.501 2.839 L 4.374 3.155 L 4.628 3.155 L 4.755 2.867 C 4.865 2.79 4.974 2.712 5.086 2.637 L 5.34 2.724 C 5.509 2.839 5.679 2.954 5.848 3.069 L 6.103 2.839 L 5.823 2.724 L 5.696 2.465 L 5.213 2.407 L 5.187 2.263 L 4.958 2.321 L 4.857 2.522 L 4.73 2.263 L 4.679 2.378 L 4.704 2.666 L 4.501 2.839 M 5.416 2.119 L 5.543 2.004 L 5.797 1.947 C 5.972 1.862 6.146 1.805 6.331 1.745 L 6.23 1.573 L 5.902 1.62 L 5.746 1.774 L 5.491 1.811 L 5.264 1.918 L 5.153 1.971 L 5.086 2.062 L 5.416 2.119 M 5.848 4.853 L 6.001 4.623 L 5.772 4.45 L 5.848 4.853" fill="#58cc63"/>
  <!-- eD2k (SW) -->
  <path d="M 4.927 10.164 L 6.345 11.536 C 6.412 11.584 6.491 11.617 6.563 11.605 C 6.739 11.569 6.873 11.406 6.869 11.262 L 6.978 5.492 L 6.965 5.452 C 6.953 5.298 6.791 5.232 6.64 5.282 L 0.84 7.229 C 0.752 7.251 0.671 7.309 0.619 7.397 C 0.536 7.546 0.592 7.718 0.706 7.772 L 2.347 8.405 C 2.118 8.764 1.888 9.183 1.706 9.625 C 1.228 10.773 0.946 12.188 1.104 13.52 C 1.26 14.854 1.364 15.038 1.585 15.334 C 1.695 15.481 1.991 15.445 2.088 15.169 C 2.182 14.894 2.229 14.755 2.207 14.398 C 2.156 13.68 2.505 12.1 3.219 11.257 C 3.668 10.742 4.192 10.449 4.927 10.164 Z" fill="url(#arr_base)" stroke="#7a0d0d" stroke-width="0.6" stroke-linejoin="round"/>
  <!-- Kad (NE) -->
  <path d="M 11.073 5.836 L 9.655 4.464 C 9.588 4.416 9.509 4.383 9.437 4.395 C 9.261 4.431 9.127 4.594 9.131 4.738 L 9.022 10.508 L 9.035 10.548 C 9.047 10.702 9.209 10.768 9.36 10.718 L 15.16 8.771 C 15.248 8.749 15.329 8.691 15.381 8.603 C 15.464 8.454 15.408 8.282 15.294 8.228 L 13.653 7.595 C 13.882 7.236 14.112 6.817 14.294 6.375 C 14.772 5.227 15.054 3.812 14.896 2.48 C 14.74 1.146 14.636 0.962 14.415 0.666 C 14.305 0.519 14.009 0.555 13.912 0.831 C 13.818 1.106 13.771 1.245 13.793 1.602 C 13.844 2.32 13.495 3.9 12.781 4.743 C 12.332 5.258 11.808 5.551 11.073 5.836 Z" fill="url(#arr_base)" stroke="#7a0d0d" stroke-width="0.6" stroke-linejoin="round"/>
</svg>
