<svg xmlns="http://www.w3.org/2000/svg" viewBox="0 0 16 16">
  <defs>
    <linearGradient id="arr_ed2k_low" x1="0" y1="0" x2="0.55" y2="1">
      <stop offset="0" stop-color="#ffffd9"/>
      <stop offset="0.45" stop-color="#f0e945"/>
      <stop offset="1" stop-color="#b3a90f"/>
    </linearGradient>
  </defs>
  <path d="M 4.927 10.164 L 6.345 11.536 C 6.412 11.584 6.491 11.617 6.563 11.605 C 6.739 11.569 6.873 11.406 6.869 11.262 L 6.978 5.492 L 6.965 5.452 C 6.953 5.298 6.791 5.232 6.64 5.282 L 0.84 7.229 C 0.752 7.251 0.671 7.309 0.619 7.397 C 0.536 7.546 0.592 7.718 0.706 7.772 L 2.347 8.405 C 2.118 8.764 1.888 9.183 1.706 9.625 C 1.228 10.773 0.946 12.188 1.104 13.52 C 1.26 14.854 1.364 15.038 1.585 15.334 C 1.695 15.481 1.991 15.445 2.088 15.169 C 2.182 14.894 2.229 14.755 2.207 14.398 C 2.156 13.68 2.505 12.1 3.219 11.257 C 3.668 10.742 4.192 10.449 4.927 10.164 Z" fill="url(#arr_ed2k_low)" stroke="#4a4605" stroke-width="0.6" stroke-linejoin="round"/>
</svg>
