<svg xmlns="http://www.w3.org/2000/svg" viewBox="0 0 16 16">
  <defs>
    <radialGradient id="sea" cx="0.35" cy="0.3" r="0.95">
      <stop offset="0" stop-color="#2a7fd4"/>
      <stop offset="0.55" stop-color="#0a4c96"/>
      <stop offset="1" stop-color="#00305e"/>
    </radialGradient>
  </defs>
  <circle cx="8" cy="8" r="7.3" fill="url(#sea)" stroke="#00182d" stroke-width="0.8"/>
  <!-- Africa (centred, wide north tapering to a southern tip) -->
  <path d="M5.7 5.6 C6.6 4.9 8.6 4.9 10.2 5.4 C10.9 6.2 10.6 7.1 10.0 7.8
           C9.7 9.0 9.4 10.4 8.7 11.6 C8.3 12.4 7.9 12.7 7.4 12.2
           C7.0 10.8 6.6 9.6 5.9 8.6 C5.2 7.7 5.0 6.4 5.7 5.6 Z" fill="#3fae4a"/>
  <!-- Europe (upper-left) -->
  <path d="M4.2 3.9 C5.2 3.5 6.6 3.8 6.9 4.7 C6.6 5.5 5.4 5.7 4.6 5.3 C4.0 5.0 3.7 4.3 4.2 3.9 Z" fill="#4fbb57"/>
  <!-- Arabia hint (right of Africa) -->
  <path d="M10.7 6.2 C11.6 6.0 12.4 6.7 12.1 7.5 C11.5 8.0 10.6 7.6 10.5 6.9 Z" fill="#2f8f3f"/>
  <ellipse cx="5.6" cy="3.2" rx="3.0" ry="1.5" fill="#ffffff" opacity="0.26"/>
  <!-- eD2k arrow (bottom-left) -->
  <path d="M 8.4 6.6 L 4.6 7.3 L 5.3 8.7 Q 3.5 9.6 3.2 11.6 Q 3.9 12.2 4.8 11.3 Q 5.4 9.9 6.3 9.6 L 7.0 10.1 Z" fill="#e51a1a" stroke="#7a0d0d" stroke-width="0.6" stroke-linejoin="round"/>
  <path d="M 5.1 9.3 Q 4.1 10.3 3.9 11.4" fill="none" stroke="#ffffff" stroke-width="0.7" opacity="0.7" stroke-linecap="round"/>
  <!-- Kad arrow (top-right) -->
  <path d="M 7.6 9.4 L 11.4 8.7 L 10.7 7.3 Q 12.5 6.4 12.8 4.4 Q 12.1 3.8 11.2 4.7 Q 10.6 6.1 9.7 6.4 L 9.0 5.9 Z" fill="#e51a1a" stroke="#7a0d0d" stroke-width="0.6" stroke-linejoin="round"/>
  <path d="M 10.9 6.7 Q 11.9 5.7 12.1 4.6" fill="none" stroke="#ffffff" stroke-width="0.7" opacity="0.7" stroke-linecap="round"/>
</svg>
