<svg xmlns="http://www.w3.org/2000/svg" viewBox="0 0 16 16">
  <defs>
    <radialGradient id="sea" cx="0.35" cy="0.3" r="0.95">
      <stop offset="0" stop-color="#2a7fd4"/>
      <stop offset="0.55" stop-color="#0a4c96"/>
      <stop offset="1" stop-color="#00305e"/>
    </radialGradient>
  </defs>
  <circle cx="8" cy="8" r="7.3" fill="url(#sea)" stroke="#00182d" stroke-width="0.8"/>
  <path d="M5.7 5.6 C6.6 4.9 8.6 4.9 10.2 5.4 C10.9 6.2 10.6 7.1 10.0 7.8 C9.7 9.0 9.4 10.4 8.7 11.6 C8.3 12.4 7.9 12.7 7.4 12.2 C7.0 10.8 6.6 9.6 5.9 8.6 C5.2 7.7 5.0 6.4 5.7 5.6 Z" fill="#3fae4a"/>
  <path d="M4.2 3.9 C5.2 3.5 6.6 3.8 6.9 4.7 C6.6 5.5 5.4 5.7 4.6 5.3 C4.0 5.0 3.7 4.3 4.2 3.9 Z" fill="#4fbb57"/>
  <path d="M10.7 6.2 C11.6 6.0 12.4 6.7 12.1 7.5 C11.5 8.0 10.6 7.6 10.5 6.9 Z" fill="#2f8f3f"/>
  <ellipse cx="6.7" cy="4.2" rx="2.5" ry="1.2" fill="#ffffff" opacity="0.26"/>
  <!-- eD2k (SW) -->
  <path d="M 4.57 11.23 L 3.24 10.96 C 3.19 10.95 3.15 10.92 3.12 10.87 C 3.07 10.79 3.1 10.68 3.19 10.63 L 6.36 8.88 L 6.39 8.86 C 6.48 8.83 6.58 8.88 6.62 8.97 L 7.81 12.32 C 7.82 12.36 7.82 12.42 7.79 12.46 C 7.74 12.55 7.63 12.58 7.55 12.53 L 6.56 11.95 C 6.45 12.16 6.3 12.39 6.13 12.61 C 5.67 13.18 4.99 13.74 4.19 14.06 C 3.38 14.38 2.44 14.45 1.47 14.05 C 1.12 13.91 0.76 13.7 0.41 13.42 C 0.35 13.38 0.32 13.3 0.33 13.23 C 0.36 13.13 0.45 13.07 0.55 13.09 C 1.84 13.4 2.74 13.18 3.37 12.74 C 3.94 12.35 4.31 11.77 4.57 11.23 Z" fill="#e51a1a" stroke="#7a0d0d" stroke-width="0.45" stroke-linejoin="round"/>
  <!-- Kad (NE) -->
  <path d="M 11.43 4.77 L 12.76 5.04 C 12.81 5.05 12.85 5.08 12.88 5.13 C 12.93 5.21 12.9 5.32 12.81 5.37 L 9.64 7.12 L 9.61 7.14 C 9.52 7.17 9.42 7.12 9.38 7.03 L 8.19 3.68 C 8.18 3.64 8.18 3.58 8.21 3.54 C 8.26 3.45 8.37 3.42 8.45 3.47 L 9.44 4.05 C 9.55 3.84 9.7 3.61 9.87 3.39 C 10.33 2.82 11.01 2.26 11.81 1.94 C 12.62 1.62 13.56 1.55 14.53 1.95 C 14.88 2.09 15.24 2.3 15.59 2.58 C 15.65 2.62 15.68 2.7 15.67 2.77 C 15.64 2.87 15.55 2.93 15.45 2.91 C 14.16 2.6 13.26 2.82 12.63 3.26 C 12.06 3.65 11.69 4.23 11.43 4.77 Z" fill="#e51a1a" stroke="#7a0d0d" stroke-width="0.45" stroke-linejoin="round"/>
</svg>
