<svg xmlns="http://www.w3.org/2000/svg" viewBox="0 0 16 16">
  <defs>
    <linearGradient id="arr_kad_firewalled" x1="0" y1="0" x2="0.55" y2="1">
      <stop offset="0" stop-color="#ffffd9"/>
      <stop offset="0.45" stop-color="#f0e945"/>
      <stop offset="1" stop-color="#b3a90f"/>
    </linearGradient>
  </defs>
  <path d="M 11.304 5.876 L 10.636 4.584 C 10.6 4.535 10.553 4.492 10.5 4.485 C 10.371 4.47 10.241 4.554 10.211 4.655 L 8.831 8.692 L 8.831 8.722 C 8.806 8.833 8.901 8.918 9.018 8.917 L 13.465 8.884 C 13.532 8.887 13.6 8.866 13.656 8.816 C 13.748 8.73 13.748 8.597 13.681 8.533 L 12.691 7.708 C 12.929 7.508 13.183 7.267 13.408 6.997 C 13.999 6.3 14.513 5.37 14.706 4.395 C 14.898 3.42 14.766 2.395 14.023 1.528 C 13.754 1.211 13.395 0.902 12.952 0.635 C 12.905 0.592 12.782 0.585 12.702 0.635 C 12.597 0.695 12.54 0.82 12.597 0.913 C 13.3 2.167 13.256 3.202 12.877 4.037 C 12.534 4.776 11.909 5.403 11.304 5.876 Z" fill="url(#arr_kad_firewalled)" stroke="#4a4605" stroke-width="0.6" stroke-linejoin="round"/>
</svg>
