<svg xmlns="http://www.w3.org/2000/svg" viewBox="0 0 16 16">
  <defs>
    <radialGradient id="sea" cx="0.35" cy="0.3" r="0.95">
      <stop offset="0" stop-color="#2a7fd4"/>
      <stop offset="0.55" stop-color="#0a4c96"/>
      <stop offset="1" stop-color="#00305e"/>
    </radialGradient>
  </defs>
  <circle cx="8" cy="8" r="7.3" fill="url(#sea)" stroke="#00182d" stroke-width="0.8"/>
  <path d="M5.7 5.6 C6.6 4.9 8.6 4.9 10.2 5.4 C10.9 6.2 10.6 7.1 10.0 7.8 C9.7 9.0 9.4 10.4 8.7 11.6 C8.3 12.4 7.9 12.7 7.4 12.2 C7.0 10.8 6.6 9.6 5.9 8.6 C5.2 7.7 5.0 6.4 5.7 5.6 Z" fill="#3fae4a"/>
  <path d="M4.2 3.9 C5.2 3.5 6.6 3.8 6.9 4.7 C6.6 5.5 5.4 5.7 4.6 5.3 C4.0 5.0 3.7 4.3 4.2 3.9 Z" fill="#4fbb57"/>
  <path d="M10.7 6.2 C11.6 6.0 12.4 6.7 12.1 7.5 C11.5 8.0 10.6 7.6 10.5 6.9 Z" fill="#2f8f3f"/>
  <ellipse cx="6.7" cy="4.2" rx="2.5" ry="1.2" fill="#ffffff" opacity="0.26"/>
  <!-- eD2k (SW) -->
  <path d="M 5.08 10.62 L 3.57 10.32 C 3.51 10.31 3.46 10.27 3.43 10.22 C 3.38 10.12 3.41 10.0 3.51 9.94 L 7.12 7.95 L 7.15 7.93 C 7.25 7.9 7.37 7.95 7.41 8.06 L 8.76 11.86 C 8.78 11.91 8.77 11.97 8.74 12.03 C 8.69 12.12 8.56 12.16 8.47 12.1 L 7.34 11.44 C 7.21 11.68 7.05 11.94 6.85 12.19 C 6.33 12.84 5.56 13.47 4.65 13.83 C 3.73 14.2 2.66 14.28 1.56 13.83 C 1.16 13.66 0.75 13.43 0.35 13.11 C 0.28 13.06 0.25 12.98 0.27 12.89 C 0.29 12.78 0.4 12.72 0.51 12.74 C 1.98 13.09 3.0 12.84 3.72 12.34 C 4.36 11.89 4.78 11.24 5.08 10.62 Z" fill="#e51a1a" stroke="#7a0d0d" stroke-width="0.45" stroke-linejoin="round"/>
  <!-- Kad (NE) -->
  <path d="M 10.92 5.38 L 12.43 5.68 C 12.49 5.69 12.54 5.73 12.57 5.78 C 12.62 5.88 12.59 6.0 12.49 6.06 L 8.88 8.05 L 8.85 8.07 C 8.75 8.1 8.63 8.05 8.59 7.94 L 7.24 4.14 C 7.22 4.09 7.23 4.03 7.26 3.97 C 7.31 3.88 7.44 3.84 7.53 3.9 L 8.66 4.56 C 8.79 4.32 8.95 4.06 9.15 3.81 C 9.67 3.16 10.44 2.53 11.35 2.17 C 12.27 1.8 13.34 1.72 14.44 2.17 C 14.84 2.34 15.25 2.57 15.65 2.89 C 15.72 2.94 15.75 3.02 15.73 3.11 C 15.71 3.22 15.6 3.28 15.49 3.26 C 14.02 2.91 13.0 3.16 12.28 3.66 C 11.64 4.11 11.22 4.76 10.92 5.38 Z" fill="#e51a1a" stroke="#7a0d0d" stroke-width="0.45" stroke-linejoin="round"/>
</svg>
