<svg xmlns="http://www.w3.org/2000/svg" viewBox="0 0 16 16">
  <defs>
    <linearGradient id="arr_kad_ok" x1="0" y1="0" x2="0.55" y2="1">
      <stop offset="0" stop-color="#d9ffcf"/>
      <stop offset="0.45" stop-color="#43fc3f"/>
      <stop offset="1" stop-color="#1da32c"/>
    </linearGradient>
  </defs>
  <path d="M 11.073 5.836 L 9.655 4.464 C 9.588 4.416 9.509 4.383 9.437 4.395 C 9.261 4.431 9.127 4.594 9.131 4.738 L 9.022 10.508 L 9.035 10.548 C 9.047 10.702 9.209 10.768 9.36 10.718 L 15.16 8.771 C 15.248 8.749 15.329 8.691 15.381 8.603 C 15.464 8.454 15.408 8.282 15.294 8.228 L 13.653 7.595 C 13.882 7.236 14.112 6.817 14.294 6.375 C 14.772 5.227 15.054 3.812 14.896 2.48 C 14.74 1.146 14.636 0.962 14.415 0.666 C 14.305 0.519 14.009 0.555 13.912 0.831 C 13.818 1.106 13.771 1.245 13.793 1.602 C 13.844 2.32 13.495 3.9 12.781 4.743 C 12.332 5.258 11.808 5.551 11.073 5.836 Z" fill="url(#arr_kad_ok)" stroke="#0c3f1c" stroke-width="0.6" stroke-linejoin="round"/>
</svg>
