<svg xmlns="http://www.w3.org/2000/svg" viewBox="0 0 16 16">
  <defs>
    <linearGradient id="arr_ed2k_off" x1="0" y1="0" x2="0.55" y2="1">
      <stop offset="0" stop-color="#ffc9c9"/>
      <stop offset="0.45" stop-color="#f22525"/>
      <stop offset="1" stop-color="#a81111"/>
    </linearGradient>
  </defs>
  <path d="M 4.67 9.263 L 5.453 10.766 C 5.494 10.823 5.55 10.873 5.612 10.881 C 5.763 10.899 5.915 10.801 5.95 10.683 L 7.565 5.988 L 7.565 5.952 C 7.594 5.823 7.482 5.725 7.346 5.726 L 2.143 5.764 C 2.065 5.76 1.985 5.785 1.92 5.843 C 1.812 5.944 1.812 6.098 1.891 6.173 L 3.049 7.132 C 2.769 7.364 2.473 7.645 2.21 7.959 C 1.519 8.77 0.917 9.852 0.692 10.986 C 0.466 12.12 0.621 13.312 1.491 14.321 C 1.805 14.69 2.225 15.049 2.744 15.359 C 2.799 15.409 2.942 15.418 3.036 15.359 C 3.159 15.29 3.226 15.144 3.159 15.036 C 2.336 13.578 2.388 12.373 2.831 11.402 C 3.232 10.543 3.964 9.814 4.67 9.263 Z" fill="url(#arr_ed2k_off)" stroke="#7a0d0d" stroke-width="0.6" stroke-linejoin="round"/>
</svg>
