<svg xmlns="http://www.w3.org/2000/svg" viewBox="0 0 16 16">
  <defs>
    <linearGradient id="arr_kad_ok" x1="0" y1="0" x2="0.55" y2="1">
      <stop offset="0" stop-color="#d9ffcf"/>
      <stop offset="0.45" stop-color="#43fc3f"/>
      <stop offset="1" stop-color="#1da32c"/>
    </linearGradient>
  </defs>
  <path d="M 11.304 5.776 L 10.636 4.484 C 10.6 4.435 10.553 4.392 10.5 4.385 C 10.371 4.37 10.241 4.454 10.211 4.555 L 8.831 8.592 L 8.831 8.622 C 8.806 8.733 8.901 8.818 9.018 8.817 L 13.465 8.784 C 13.532 8.787 13.6 8.766 13.656 8.716 C 13.748 8.63 13.748 8.497 13.681 8.433 L 12.691 7.608 C 12.929 7.408 13.183 7.167 13.408 6.897 C 13.999 6.2 14.513 5.27 14.706 4.295 C 14.898 3.32 14.766 2.295 14.023 1.428 C 13.754 1.111 13.395 0.802 12.952 0.535 C 12.905 0.492 12.782 0.485 12.702 0.535 C 12.597 0.595 12.54 0.72 12.597 0.813 C 13.3 2.067 13.256 3.102 12.877 3.937 C 12.534 4.676 11.909 5.303 11.304 5.776 Z" fill="url(#arr_kad_ok)" stroke="#14582a" stroke-width="0.4" stroke-linejoin="round"/>
</svg>
