<svg xmlns="http://www.w3.org/2000/svg" viewBox="0 0 16 16">
  <path d="M 5.08 10.62 L 3.57 10.32 C 3.51 10.31 3.46 10.27 3.43 10.22 C 3.38 10.12 3.41 10.0 3.51 9.94 L 7.12 7.95 L 7.15 7.93 C 7.25 7.9 7.37 7.95 7.41 8.06 L 8.76 11.86 C 8.78 11.91 8.77 11.97 8.74 12.03 C 8.69 12.12 8.56 12.16 8.47 12.1 L 7.34 11.44 C 7.21 11.68 7.05 11.94 6.85 12.19 C 6.33 12.84 5.56 13.47 4.65 13.83 C 3.73 14.2 2.66 14.28 1.56 13.83 C 1.16 13.66 0.75 13.43 0.35 13.11 C 0.28 13.06 0.25 12.98 0.27 12.89 C 0.29 12.78 0.4 12.72 0.51 12.74 C 1.98 13.09 3.0 12.84 3.72 12.34 C 4.36 11.89 4.78 11.24 5.08 10.62 Z" fill="#d7862b" stroke="#5d3a12" stroke-width="0.45" stroke-linejoin="round"/>
</svg>
