<svg xmlns="http://www.w3.org/2000/svg" viewBox="0 0 16 16">
  <defs>
    <linearGradient id="arr_ed2k_high" x1="0" y1="0" x2="0.55" y2="1">
      <stop offset="0" stop-color="#d9ffcf"/>
      <stop offset="0.45" stop-color="#43fc3f"/>
      <stop offset="1" stop-color="#1da32c"/>
    </linearGradient>
  </defs>
  <path d="M 4.696 10.224 L 5.364 11.516 C 5.4 11.565 5.447 11.608 5.5 11.615 C 5.629 11.63 5.759 11.546 5.789 11.445 L 7.169 7.408 L 7.169 7.378 C 7.194 7.267 7.099 7.182 6.982 7.183 L 2.535 7.216 C 2.468 7.213 2.4 7.234 2.344 7.284 C 2.252 7.37 2.252 7.503 2.319 7.567 L 3.309 8.392 C 3.071 8.592 2.817 8.833 2.592 9.103 C 2.001 9.8 1.487 10.73 1.294 11.705 C 1.102 12.68 1.234 13.705 1.977 14.572 C 2.246 14.889 2.605 15.198 3.048 15.465 C 3.095 15.508 3.218 15.515 3.298 15.465 C 3.403 15.405 3.46 15.28 3.403 15.187 C 2.7 13.933 2.744 12.898 3.123 12.063 C 3.466 11.324 4.091 10.697 4.696 10.224 Z" fill="url(#arr_ed2k_high)" stroke="#14582a" stroke-width="0.4" stroke-linejoin="round"/>
</svg>
