<svg xmlns="http://www.w3.org/2000/svg" viewBox="0 0 16 16">
  <defs>
    <linearGradient id="arr_ed2k_low" x1="0" y1="0" x2="0.55" y2="1">
      <stop offset="0" stop-color="#ffffd9"/>
      <stop offset="0.45" stop-color="#f0e945"/>
      <stop offset="1" stop-color="#b3a90f"/>
    </linearGradient>
  </defs>
  <path d="M 4.696 10.124 L 5.364 11.416 C 5.4 11.465 5.447 11.508 5.5 11.515 C 5.629 11.53 5.759 11.446 5.789 11.345 L 7.169 7.308 L 7.169 7.278 C 7.194 7.167 7.099 7.082 6.982 7.083 L 2.535 7.116 C 2.468 7.113 2.4 7.134 2.344 7.184 C 2.252 7.27 2.252 7.403 2.319 7.467 L 3.309 8.292 C 3.071 8.492 2.817 8.733 2.592 9.003 C 2.001 9.7 1.487 10.63 1.294 11.605 C 1.102 12.58 1.234 13.605 1.977 14.472 C 2.246 14.789 2.605 15.098 3.048 15.365 C 3.095 15.408 3.218 15.415 3.298 15.365 C 3.403 15.305 3.46 15.18 3.403 15.087 C 2.7 13.833 2.744 12.798 3.123 11.963 C 3.466 11.224 4.091 10.597 4.696 10.124 Z" fill="url(#arr_ed2k_low)" stroke="#4a4605" stroke-width="0.6" stroke-linejoin="round"/>
</svg>
