<svg xmlns="http://www.w3.org/2000/svg" viewBox="0 0 16 16">
  <path d="M 10.92 5.38 L 12.43 5.68 C 12.49 5.69 12.54 5.73 12.57 5.78 C 12.62 5.88 12.59 6.0 12.49 6.06 L 8.88 8.05 L 8.85 8.07 C 8.75 8.1 8.63 8.05 8.59 7.94 L 7.24 4.14 C 7.22 4.09 7.23 4.03 7.26 3.97 C 7.31 3.88 7.44 3.84 7.53 3.9 L 8.66 4.56 C 8.79 4.32 8.95 4.06 9.15 3.81 C 9.67 3.16 10.44 2.53 11.35 2.17 C 12.27 1.8 13.34 1.72 14.44 2.17 C 14.84 2.34 15.25 2.57 15.65 2.89 C 15.72 2.94 15.75 3.02 15.73 3.11 C 15.71 3.22 15.6 3.28 15.49 3.26 C 14.02 2.91 13.0 3.16 12.28 3.66 C 11.64 4.11 11.22 4.76 10.92 5.38 Z" fill="#f0e945" stroke="#6d6909" stroke-width="0.45" stroke-linejoin="round"/>
</svg>
