<svg xmlns="http://www.w3.org/2000/svg" viewBox="0 0 32 32">
  <defs>
    <linearGradient id="ring" gradientUnits="userSpaceOnUse" x1="6" y1="3" x2="24" y2="28">
      <stop offset="0" stop-color="#fdfdfe"/>
      <stop offset="0.35" stop-color="#ececf1"/>
      <stop offset="0.7" stop-color="#c9c9d4"/>
      <stop offset="1" stop-color="#9797ac"/>
    </linearGradient>
    <radialGradient id="face" cx="0.42" cy="0.38" r="0.85">
      <stop offset="0" stop-color="#ffffff"/>
      <stop offset="0.45" stop-color="#f2fbff"/>
      <stop offset="0.75" stop-color="#d9f3ff"/>
      <stop offset="1" stop-color="#bfe6fd"/>
    </radialGradient>
    <linearGradient id="edge" gradientUnits="userSpaceOnUse" x1="7" y1="6" x2="23" y2="25">
      <stop offset="0" stop-color="#b9b9c9"/>
      <stop offset="1" stop-color="#8888a4"/>
    </linearGradient>
  </defs>
  <circle cx="14.9" cy="15" r="14.2" fill="url(#ring)" stroke="#83839c" stroke-width="0.9"/>
  <path d="M2.78 10.59 A12.9 12.9 0 0 1 19.31 2.88" fill="none" stroke="#ffffff" stroke-width="1.6" stroke-linecap="round" opacity="0.7"/>
  <circle cx="14.9" cy="15" r="11.3" fill="url(#face)" stroke="url(#edge)" stroke-width="0.9"/>
  <rect x="14" y="3.5" width="1.8" height="1.8" rx="0.3" fill="#74aef3"/>
  <rect x="14" y="24.7" width="1.8" height="1.8" rx="0.3" fill="#74aef3"/>
  <rect x="3.4" y="14.1" width="1.8" height="1.8" rx="0.3" fill="#74aef3"/>
  <rect x="24.6" y="14.1" width="1.8" height="1.8" rx="0.3" fill="#74aef3"/>
  <line x1="13.1" y1="17.6" x2="21.6" y2="8.7" stroke="#35507e" stroke-width="1.8" stroke-linecap="round" opacity="0.18"/>
  <line x1="13.3" y1="16.3" x2="20.8" y2="16.3" stroke="#35507e" stroke-width="1.8" stroke-linecap="round" opacity="0.18"/>
  <line x1="12.4" y1="16.8" x2="20.9" y2="7.9" stroke="#000000" stroke-width="1.8" stroke-linecap="round"/>
  <line x1="12.6" y1="15.5" x2="20.1" y2="15.5" stroke="#000000" stroke-width="1.8" stroke-linecap="round"/>
  <circle cx="14.5" cy="15.4" r="1.55" fill="#000000"/>
  <circle cx="14.1" cy="15" r="0.55" fill="#cfe4f7" opacity="0.95"/>
</svg>
