<svg xmlns="http://www.w3.org/2000/svg" viewBox="0 0 32 32">
  <defs>
    <radialGradient id="head" cx="0.4" cy="0.3" r="0.95">
      <stop offset="0" stop-color="#f9bcbc"/>
      <stop offset="0.28" stop-color="#ef7777"/>
      <stop offset="0.55" stop-color="#d02020"/>
      <stop offset="0.8" stop-color="#b40808"/>
      <stop offset="1" stop-color="#9c0202"/>
    </radialGradient>
    <linearGradient id="body" gradientUnits="userSpaceOnUse" x1="15.6" y1="14.6" x2="15.6" y2="31">
      <stop offset="0" stop-color="#d93838"/>
      <stop offset="0.3" stop-color="#bf0c0c"/>
      <stop offset="0.65" stop-color="#ab0505"/>
      <stop offset="1" stop-color="#bd0f0f"/>
    </linearGradient>
    <radialGradient id="glow" cx="0.5" cy="0.5" r="0.5">
      <stop offset="0" stop-color="#ffd2d2" stop-opacity="0.95"/>
      <stop offset="0.6" stop-color="#f9a6a6" stop-opacity="0.5"/>
      <stop offset="1" stop-color="#f9a6a6" stop-opacity="0"/>
    </radialGradient>
  </defs>
  <path d="M15.6 30.9 C12.4 30.9 9.6 30.4 7.8 29.5 C6.1 28.7 5.2 27.6 5.2 26.2 C5.2 24.1 6.3 20.5 7.8 18.2 C9.1 16.1 11.1 14.6 13.3 14.6 L17.9 14.6 C20.1 14.6 22.1 16.1 23.4 18.2 C24.9 20.5 26 24.1 26 26.2 C26 27.6 25.1 28.7 23.4 29.5 C21.6 30.4 18.8 30.9 15.6 30.9 Z" fill="url(#body)" stroke="#840101" stroke-width="0.9"/>
  <ellipse cx="15.6" cy="28.2" rx="6.8" ry="2.6" fill="url(#glow)"/>
  <path d="M7.9 19.8 C9.4 16.6 11.8 15.4 15.6 15.4 C19.4 15.4 21.8 16.6 23.3 19.8" fill="none" stroke="#f3a1a1" stroke-width="1.1" stroke-linecap="round" opacity="0.7"/>
  <ellipse cx="15.6" cy="15.5" rx="4.8" ry="1.6" fill="#740000" opacity="0.35"/>
  <circle cx="15.6" cy="7.5" r="7.4" fill="url(#head)" stroke="#8b0101" stroke-width="0.9"/>
  <path d="M11 13.1 C12.6 14.6 14.1 14.9 15.6 14.9 C17.1 14.9 18.6 14.6 20.2 13.1" fill="none" stroke="#f7b0b0" stroke-width="1" stroke-linecap="round" opacity="0.8"/>
</svg>
